<svg width="1389" height="906" viewBox="0 0 1389 906" fill="none" xmlns="http://www.w3.org/2000/svg">
<mask id="mask0_106_445" style="mask-type:luminance" maskUnits="userSpaceOnUse" x="0" y="-24" width="1394" height="930">
<path d="M1393.75 -23.6665H0V905.5H1393.75V-23.6665Z" fill="white"/>
</mask>
<g mask="url(#mask0_106_445)">
<path d="M1392.81 -44.6069H5.46936V930.675H1392.81V-44.6069Z" fill="white"/>
<path d="M1395.51 504.723C1344.5 472.683 1272.91 477.992 1227.16 517.173C1164.57 570.794 1157.27 669.181 1096.21 724.542C1074.51 744.224 1047.6 756.925 1021.69 770.565C995.787 784.205 969.812 799.699 952.167 823.088C934.522 846.478 926.992 879.571 940.518 905.477H1393.75L1395.51 504.723Z" fill="url(#paint0_linear_106_445)"/>
<path d="M1111.18 637.186C1120.15 637.186 1127.43 629.912 1127.43 620.937C1127.43 611.963 1120.15 604.688 1111.18 604.688C1102.2 604.688 1094.93 611.963 1094.93 620.937C1094.93 629.912 1102.2 637.186 1111.18 637.186Z" fill="url(#paint1_linear_106_445)"/>
<path d="M1051.49 698.474C1068.42 698.474 1082.14 684.755 1082.14 667.83C1082.14 650.906 1068.42 637.186 1051.49 637.186C1034.57 637.186 1020.85 650.906 1020.85 667.83C1020.85 684.755 1034.57 698.474 1051.49 698.474Z" fill="url(#paint2_linear_106_445)"/>
<path d="M400.854 909C403.234 892.167 401.896 875.015 396.936 858.756C391.975 842.496 383.513 827.524 372.145 814.895C360.777 802.266 346.781 792.288 331.143 785.664C315.505 779.039 298.606 775.931 281.637 776.557C259.1 777.403 236.905 784.787 214.459 782.958C187.834 780.809 164.041 766.063 142.28 750.585C120.519 735.107 98.8949 718.211 73.3435 710.575C47.792 702.939 16.6233 707.008 0 727.905V908.931L400.854 909Z" fill="url(#paint3_linear_106_445)"/>
<g opacity="0.33">
<mask id="mask1_106_445" style="mask-type:luminance" maskUnits="userSpaceOnUse" x="1218" y="412" width="240" height="240">
<path d="M1454.19 561.365C1470.27 497.286 1431.37 432.301 1367.29 416.218C1303.21 400.134 1238.22 439.042 1222.14 503.121C1206.06 567.2 1244.96 632.185 1309.04 648.269C1373.12 664.352 1438.11 625.444 1454.19 561.365Z" fill="white"/>
</mask>
<g mask="url(#mask1_106_445)">
<path d="M1243.9 412.561C1243.9 414.059 1243.45 415.523 1242.62 416.769C1241.79 418.015 1240.6 418.986 1239.22 419.559C1237.84 420.133 1236.31 420.283 1234.84 419.99C1233.37 419.698 1232.02 418.976 1230.96 417.917C1229.9 416.858 1229.18 415.508 1228.89 414.038C1228.6 412.569 1228.75 411.046 1229.32 409.662C1229.9 408.277 1230.87 407.094 1232.11 406.262C1233.36 405.43 1234.82 404.985 1236.32 404.985C1238.33 404.985 1240.26 405.783 1241.68 407.204C1243.1 408.625 1243.9 410.551 1243.9 412.561Z" fill="white"/>
<path d="M1269.35 412.561C1269.35 414.059 1268.9 415.523 1268.07 416.769C1267.24 418.015 1266.05 418.986 1264.67 419.559C1263.28 420.133 1261.76 420.283 1260.29 419.99C1258.82 419.698 1257.47 418.976 1256.41 417.917C1255.35 416.858 1254.63 415.508 1254.34 414.038C1254.05 412.569 1254.2 411.046 1254.77 409.662C1255.34 408.277 1256.32 407.094 1257.56 406.262C1258.81 405.43 1260.27 404.985 1261.77 404.985C1263.78 404.985 1265.71 405.783 1267.13 407.204C1268.55 408.625 1269.35 410.551 1269.35 412.561Z" fill="white"/>
<path d="M1294.77 412.561C1294.79 414.063 1294.36 415.536 1293.54 416.794C1292.72 418.052 1291.54 419.037 1290.16 419.624C1288.78 420.212 1287.25 420.375 1285.78 420.093C1284.3 419.811 1282.94 419.097 1281.87 418.041C1280.8 416.986 1280.07 415.636 1279.77 414.164C1279.47 412.692 1279.62 411.165 1280.19 409.775C1280.76 408.385 1281.73 407.197 1282.98 406.36C1284.23 405.524 1285.69 405.077 1287.2 405.077C1289.19 405.077 1291.1 405.863 1292.52 407.263C1293.94 408.664 1294.75 410.568 1294.77 412.561Z" fill="white"/>
<path d="M1320.22 412.561C1320.22 414.059 1319.78 415.523 1318.94 416.769C1318.11 418.015 1316.93 418.986 1315.54 419.559C1314.16 420.133 1312.64 420.283 1311.17 419.99C1309.7 419.698 1308.35 418.976 1307.29 417.917C1306.23 416.858 1305.51 415.508 1305.22 414.038C1304.92 412.569 1305.07 411.046 1305.65 409.662C1306.22 408.277 1307.19 407.094 1308.44 406.262C1309.68 405.43 1311.15 404.985 1312.64 404.985C1314.65 404.985 1316.58 405.783 1318 407.204C1319.42 408.625 1320.22 410.551 1320.22 412.561Z" fill="white"/>
<path d="M1345.56 412.561C1345.56 414.059 1345.11 415.523 1344.28 416.769C1343.45 418.015 1342.26 418.986 1340.88 419.559C1339.49 420.133 1337.97 420.283 1336.5 419.99C1335.03 419.698 1333.68 418.976 1332.62 417.917C1331.56 416.858 1330.84 415.508 1330.55 414.038C1330.26 412.569 1330.41 411.046 1330.98 409.662C1331.55 408.277 1332.53 407.094 1333.77 406.262C1335.02 405.43 1336.48 404.985 1337.98 404.985C1339.99 404.985 1341.92 405.783 1343.34 407.204C1344.76 408.625 1345.56 410.551 1345.56 412.561Z" fill="white"/>
<path d="M1371.1 412.561C1371.1 414.059 1370.65 415.523 1369.82 416.769C1368.99 418.015 1367.8 418.986 1366.42 419.559C1365.03 420.133 1363.51 420.283 1362.04 419.99C1360.57 419.698 1359.22 418.976 1358.16 417.917C1357.1 416.858 1356.38 415.508 1356.09 414.038C1355.8 412.569 1355.95 411.046 1356.52 409.662C1357.09 408.277 1358.07 407.094 1359.31 406.262C1360.56 405.43 1362.02 404.985 1363.52 404.985C1365.53 404.985 1367.46 405.783 1368.88 407.204C1370.3 408.625 1371.1 410.551 1371.1 412.561Z" fill="white"/>
<path d="M1396.52 412.561C1396.54 414.067 1396.11 415.544 1395.28 416.804C1394.46 418.063 1393.28 419.048 1391.89 419.633C1390.5 420.218 1388.97 420.375 1387.49 420.086C1386.01 419.797 1384.66 419.073 1383.59 418.008C1382.53 416.943 1381.8 415.585 1381.51 414.107C1381.22 412.629 1381.38 411.099 1381.97 409.711C1382.55 408.323 1383.54 407.141 1384.8 406.316C1386.06 405.49 1387.53 405.059 1389.04 405.077C1391.02 405.101 1392.91 405.897 1394.3 407.295C1395.7 408.694 1396.5 410.583 1396.52 412.561Z" fill="white"/>
<path d="M1243.9 441.465C1243.9 442.964 1243.45 444.428 1242.62 445.674C1241.79 446.92 1240.6 447.891 1239.22 448.464C1237.84 449.037 1236.31 449.187 1234.84 448.895C1233.37 448.603 1232.02 447.881 1230.96 446.822C1229.9 445.762 1229.18 444.413 1228.89 442.943C1228.6 441.474 1228.75 439.951 1229.32 438.566C1229.9 437.182 1230.87 435.999 1232.11 435.167C1233.36 434.334 1234.82 433.89 1236.32 433.89C1238.33 433.89 1240.26 434.688 1241.68 436.109C1243.1 437.53 1243.9 439.456 1243.9 441.465Z" fill="white"/>
<path d="M1269.35 441.465C1269.35 442.964 1268.9 444.428 1268.07 445.674C1267.24 446.92 1266.05 447.891 1264.67 448.464C1263.28 449.037 1261.76 449.187 1260.29 448.895C1258.82 448.603 1257.47 447.881 1256.41 446.822C1255.35 445.762 1254.63 444.413 1254.34 442.943C1254.05 441.474 1254.2 439.951 1254.77 438.566C1255.34 437.182 1256.32 435.999 1257.56 435.167C1258.81 434.334 1260.27 433.89 1261.77 433.89C1263.78 433.89 1265.71 434.688 1267.13 436.109C1268.55 437.53 1269.35 439.456 1269.35 441.465Z" fill="white"/>
<path d="M1294.77 441.465C1294.77 442.964 1294.33 444.428 1293.49 445.674C1292.66 446.92 1291.48 447.891 1290.09 448.464C1288.71 449.037 1287.19 449.187 1285.72 448.895C1284.25 448.603 1282.9 447.881 1281.84 446.822C1280.78 445.762 1280.06 444.413 1279.77 442.943C1279.47 441.474 1279.62 439.951 1280.2 438.566C1280.77 437.182 1281.74 435.999 1282.99 435.167C1284.23 434.334 1285.7 433.89 1287.2 433.89C1289.21 433.89 1291.13 434.688 1292.55 436.109C1293.97 437.53 1294.77 439.456 1294.77 441.465Z" fill="white"/>
<path d="M1320.22 441.465C1320.22 442.964 1319.78 444.428 1318.94 445.674C1318.11 446.92 1316.93 447.891 1315.54 448.464C1314.16 449.037 1312.64 449.187 1311.17 448.895C1309.7 448.603 1308.35 447.881 1307.29 446.822C1306.23 445.762 1305.51 444.413 1305.22 442.943C1304.92 441.474 1305.07 439.951 1305.65 438.566C1306.22 437.182 1307.19 435.999 1308.44 435.167C1309.68 434.334 1311.15 433.89 1312.64 433.89C1314.65 433.89 1316.58 434.688 1318 436.109C1319.42 437.53 1320.22 439.456 1320.22 441.465Z" fill="white"/>
<path d="M1345.56 441.465C1345.56 442.964 1345.11 444.428 1344.28 445.674C1343.45 446.92 1342.26 447.891 1340.88 448.464C1339.49 449.037 1337.97 449.187 1336.5 448.895C1335.03 448.603 1333.68 447.881 1332.62 446.822C1331.56 445.762 1330.84 444.413 1330.55 442.943C1330.26 441.474 1330.41 439.951 1330.98 438.566C1331.55 437.182 1332.53 435.999 1333.77 435.167C1335.02 434.334 1336.48 433.89 1337.98 433.89C1339.99 433.89 1341.92 434.688 1343.34 436.109C1344.76 437.53 1345.56 439.456 1345.56 441.465Z" fill="white"/>
<path d="M1371.1 441.465C1371.1 442.964 1370.65 444.428 1369.82 445.674C1368.99 446.92 1367.8 447.891 1366.42 448.464C1365.03 449.037 1363.51 449.187 1362.04 448.895C1360.57 448.603 1359.22 447.881 1358.16 446.822C1357.1 445.762 1356.38 444.413 1356.09 442.943C1355.8 441.474 1355.95 439.951 1356.52 438.566C1357.09 437.182 1358.07 435.999 1359.31 435.167C1360.56 434.334 1362.02 433.89 1363.52 433.89C1365.53 433.89 1367.46 434.688 1368.88 436.109C1370.3 437.53 1371.1 439.456 1371.1 441.465Z" fill="white"/>
<path d="M1396.52 441.465C1396.52 442.964 1396.08 444.428 1395.25 445.674C1394.41 446.92 1393.23 447.891 1391.85 448.464C1390.46 449.037 1388.94 449.187 1387.47 448.895C1386 448.603 1384.65 447.881 1383.59 446.822C1382.53 445.762 1381.81 444.413 1381.52 442.943C1381.22 441.474 1381.37 439.951 1381.95 438.566C1382.52 437.182 1383.49 435.999 1384.74 435.167C1385.98 434.334 1387.45 433.89 1388.95 433.89C1390.96 433.89 1392.88 434.688 1394.3 436.109C1395.72 437.53 1396.52 439.456 1396.52 441.465Z" fill="white"/>
<path d="M1236.32 477.945C1240.5 477.945 1243.9 474.554 1243.9 470.37C1243.9 466.186 1240.5 462.795 1236.32 462.795C1232.14 462.795 1228.75 466.186 1228.75 470.37C1228.75 474.554 1232.14 477.945 1236.32 477.945Z" fill="white"/>
<path d="M1269.35 470.37C1269.35 471.868 1268.9 473.333 1268.07 474.579C1267.24 475.824 1266.05 476.795 1264.67 477.369C1263.28 477.942 1261.76 478.092 1260.29 477.8C1258.82 477.508 1257.47 476.786 1256.41 475.727C1255.35 474.667 1254.63 473.317 1254.34 471.848C1254.05 470.379 1254.2 468.855 1254.77 467.471C1255.34 466.087 1256.32 464.904 1257.56 464.072C1258.81 463.239 1260.27 462.795 1261.77 462.795C1263.78 462.795 1265.71 463.593 1267.13 465.014C1268.55 466.434 1269.35 468.361 1269.35 470.37Z" fill="white"/>
<path d="M1294.77 470.37C1294.77 471.868 1294.33 473.333 1293.49 474.579C1292.66 475.824 1291.48 476.795 1290.09 477.369C1288.71 477.942 1287.19 478.092 1285.72 477.8C1284.25 477.508 1282.9 476.786 1281.84 475.727C1280.78 474.667 1280.06 473.317 1279.77 471.848C1279.47 470.379 1279.62 468.855 1280.2 467.471C1280.77 466.087 1281.74 464.904 1282.99 464.072C1284.23 463.239 1285.7 462.795 1287.2 462.795C1289.21 462.795 1291.13 463.593 1292.55 465.014C1293.97 466.434 1294.77 468.361 1294.77 470.37Z" fill="white"/>
<path d="M1312.64 477.945C1316.83 477.945 1320.22 474.554 1320.22 470.37C1320.22 466.186 1316.83 462.795 1312.64 462.795C1308.46 462.795 1305.07 466.186 1305.07 470.37C1305.07 474.554 1308.46 477.945 1312.64 477.945Z" fill="white"/>
<path d="M1345.56 470.37C1345.56 471.868 1345.11 473.333 1344.28 474.579C1343.45 475.824 1342.26 476.795 1340.88 477.369C1339.49 477.942 1337.97 478.092 1336.5 477.8C1335.03 477.508 1333.68 476.786 1332.62 475.727C1331.56 474.667 1330.84 473.317 1330.55 471.848C1330.26 470.379 1330.41 468.855 1330.98 467.471C1331.55 466.087 1332.53 464.904 1333.77 464.072C1335.02 463.239 1336.48 462.795 1337.98 462.795C1339.99 462.795 1341.92 463.593 1343.34 465.014C1344.76 466.434 1345.56 468.361 1345.56 470.37Z" fill="white"/>
<path d="M1363.52 477.945C1367.7 477.945 1371.1 474.554 1371.1 470.37C1371.1 466.186 1367.7 462.795 1363.52 462.795C1359.34 462.795 1355.94 466.186 1355.94 470.37C1355.94 474.554 1359.34 477.945 1363.52 477.945Z" fill="white"/>
<path d="M1388.95 477.945C1393.13 477.945 1396.52 474.554 1396.52 470.37C1396.52 466.186 1393.13 462.795 1388.95 462.795C1384.76 462.795 1381.37 466.186 1381.37 470.37C1381.37 474.554 1384.76 477.945 1388.95 477.945Z" fill="white"/>
<path d="M1236.32 506.851C1240.5 506.851 1243.9 503.459 1243.9 499.275C1243.9 495.092 1240.5 491.7 1236.32 491.7C1232.14 491.7 1228.75 495.092 1228.75 499.275C1228.75 503.459 1232.14 506.851 1236.32 506.851Z" fill="white"/>
<path d="M1269.35 499.275C1269.35 500.774 1268.9 502.238 1268.07 503.484C1267.24 504.73 1266.05 505.701 1264.67 506.274C1263.28 506.847 1261.76 506.997 1260.29 506.705C1258.82 506.413 1257.47 505.691 1256.41 504.632C1255.35 503.572 1254.63 502.223 1254.34 500.753C1254.05 499.284 1254.2 497.761 1254.77 496.376C1255.34 494.992 1256.32 493.809 1257.56 492.977C1258.81 492.144 1260.27 491.7 1261.77 491.7C1263.78 491.7 1265.71 492.498 1267.13 493.919C1268.55 495.34 1269.35 497.266 1269.35 499.275Z" fill="white"/>
<path d="M1294.77 499.275C1294.77 500.774 1294.33 502.238 1293.49 503.484C1292.66 504.73 1291.48 505.701 1290.09 506.274C1288.71 506.847 1287.19 506.997 1285.72 506.705C1284.25 506.413 1282.9 505.691 1281.84 504.632C1280.78 503.572 1280.06 502.223 1279.77 500.753C1279.47 499.284 1279.62 497.761 1280.2 496.376C1280.77 494.992 1281.74 493.809 1282.99 492.977C1284.23 492.144 1285.7 491.7 1287.2 491.7C1289.21 491.7 1291.13 492.498 1292.55 493.919C1293.97 495.34 1294.77 497.266 1294.77 499.275Z" fill="white"/>
<path d="M1312.64 506.851C1316.83 506.851 1320.22 503.459 1320.22 499.275C1320.22 495.092 1316.83 491.7 1312.64 491.7C1308.46 491.7 1305.07 495.092 1305.07 499.275C1305.07 503.459 1308.46 506.851 1312.64 506.851Z" fill="white"/>
<path d="M1345.56 499.275C1345.56 500.774 1345.11 502.238 1344.28 503.484C1343.45 504.73 1342.26 505.701 1340.88 506.274C1339.49 506.847 1337.97 506.997 1336.5 506.705C1335.03 506.413 1333.68 505.691 1332.62 504.632C1331.56 503.572 1330.84 502.223 1330.55 500.753C1330.26 499.284 1330.41 497.761 1330.98 496.376C1331.55 494.992 1332.53 493.809 1333.77 492.977C1335.02 492.144 1336.48 491.7 1337.98 491.7C1339.99 491.7 1341.92 492.498 1343.34 493.919C1344.76 495.34 1345.56 497.266 1345.56 499.275Z" fill="white"/>
<path d="M1363.52 506.851C1367.7 506.851 1371.1 503.459 1371.1 499.275C1371.1 495.092 1367.7 491.7 1363.52 491.7C1359.34 491.7 1355.94 495.092 1355.94 499.275C1355.94 503.459 1359.34 506.851 1363.52 506.851Z" fill="white"/>
<path d="M1388.95 506.851C1393.13 506.851 1396.52 503.459 1396.52 499.275C1396.52 495.092 1393.13 491.7 1388.95 491.7C1384.76 491.7 1381.37 495.092 1381.37 499.275C1381.37 503.459 1384.76 506.851 1388.95 506.851Z" fill="white"/>
<path d="M1236.32 535.755C1240.5 535.755 1243.9 532.364 1243.9 528.18C1243.9 523.997 1240.5 520.605 1236.32 520.605C1232.14 520.605 1228.75 523.997 1228.75 528.18C1228.75 532.364 1232.14 535.755 1236.32 535.755Z" fill="white"/>
<path d="M1269.35 528.18C1269.35 529.678 1268.9 531.143 1268.07 532.389C1267.24 533.634 1266.05 534.605 1264.67 535.179C1263.28 535.752 1261.76 535.902 1260.29 535.61C1258.82 535.318 1257.47 534.596 1256.41 533.537C1255.35 532.477 1254.63 531.128 1254.34 529.658C1254.05 528.189 1254.2 526.665 1254.77 525.281C1255.34 523.897 1256.32 522.714 1257.56 521.882C1258.81 521.049 1260.27 520.605 1261.77 520.605C1263.78 520.605 1265.71 521.403 1267.13 522.824C1268.55 524.244 1269.35 526.171 1269.35 528.18Z" fill="white"/>
<path d="M1294.77 528.18C1294.77 529.678 1294.33 531.143 1293.49 532.389C1292.66 533.634 1291.48 534.605 1290.09 535.179C1288.71 535.752 1287.19 535.902 1285.72 535.61C1284.25 535.318 1282.9 534.596 1281.84 533.537C1280.78 532.477 1280.06 531.128 1279.77 529.658C1279.47 528.189 1279.62 526.665 1280.2 525.281C1280.77 523.897 1281.74 522.714 1282.99 521.882C1284.23 521.049 1285.7 520.605 1287.2 520.605C1289.21 520.605 1291.13 521.403 1292.55 522.824C1293.97 524.244 1294.77 526.171 1294.77 528.18Z" fill="white"/>
<path d="M1312.64 535.755C1316.83 535.755 1320.22 532.364 1320.22 528.18C1320.22 523.997 1316.83 520.605 1312.64 520.605C1308.46 520.605 1305.07 523.997 1305.07 528.18C1305.07 532.364 1308.46 535.755 1312.64 535.755Z" fill="white"/>
<path d="M1345.56 528.18C1345.56 529.678 1345.11 531.143 1344.28 532.389C1343.45 533.634 1342.26 534.605 1340.88 535.179C1339.49 535.752 1337.97 535.902 1336.5 535.61C1335.03 535.318 1333.68 534.596 1332.62 533.537C1331.56 532.477 1330.84 531.128 1330.55 529.658C1330.26 528.189 1330.41 526.665 1330.98 525.281C1331.55 523.897 1332.53 522.714 1333.77 521.882C1335.02 521.049 1336.48 520.605 1337.98 520.605C1339.99 520.605 1341.92 521.403 1343.34 522.824C1344.76 524.244 1345.56 526.171 1345.56 528.18Z" fill="white"/>
<path d="M1363.52 535.755C1367.7 535.755 1371.1 532.364 1371.1 528.18C1371.1 523.997 1367.7 520.605 1363.52 520.605C1359.34 520.605 1355.94 523.997 1355.94 528.18C1355.94 532.364 1359.34 535.755 1363.52 535.755Z" fill="white"/>
<path d="M1388.95 535.755C1393.13 535.755 1396.52 532.364 1396.52 528.18C1396.52 523.997 1393.13 520.605 1388.95 520.605C1384.76 520.605 1381.37 523.997 1381.37 528.18C1381.37 532.364 1384.76 535.755 1388.95 535.755Z" fill="white"/>
<path d="M1236.32 564.66C1240.5 564.66 1243.9 561.269 1243.9 557.085C1243.9 552.901 1240.5 549.51 1236.32 549.51C1232.14 549.51 1228.75 552.901 1228.75 557.085C1228.75 561.269 1232.14 564.66 1236.32 564.66Z" fill="white"/>
<path d="M1269.35 557.085C1269.35 558.583 1268.9 560.048 1268.07 561.294C1267.24 562.539 1266.05 563.51 1264.67 564.084C1263.28 564.657 1261.76 564.807 1260.29 564.515C1258.82 564.222 1257.47 563.501 1256.41 562.442C1255.35 561.382 1254.63 560.032 1254.34 558.563C1254.05 557.093 1254.2 555.57 1254.77 554.186C1255.34 552.802 1256.32 551.619 1257.56 550.786C1258.81 549.954 1260.27 549.51 1261.77 549.51C1263.78 549.51 1265.71 550.308 1267.13 551.729C1268.55 553.149 1269.35 555.076 1269.35 557.085Z" fill="white"/>
<path d="M1294.77 557.085C1294.77 558.583 1294.33 560.048 1293.49 561.294C1292.66 562.539 1291.48 563.51 1290.09 564.084C1288.71 564.657 1287.19 564.807 1285.72 564.515C1284.25 564.222 1282.9 563.501 1281.84 562.442C1280.78 561.382 1280.06 560.032 1279.77 558.563C1279.47 557.093 1279.62 555.57 1280.2 554.186C1280.77 552.802 1281.74 551.619 1282.99 550.786C1284.23 549.954 1285.7 549.51 1287.2 549.51C1289.21 549.51 1291.13 550.308 1292.55 551.729C1293.97 553.149 1294.77 555.076 1294.77 557.085Z" fill="white"/>
<path d="M1312.64 564.66C1316.83 564.66 1320.22 561.269 1320.22 557.085C1320.22 552.901 1316.83 549.51 1312.64 549.51C1308.46 549.51 1305.07 552.901 1305.07 557.085C1305.07 561.269 1308.46 564.66 1312.64 564.66Z" fill="white"/>
<path d="M1345.56 557.085C1345.56 558.583 1345.11 560.048 1344.28 561.294C1343.45 562.539 1342.26 563.51 1340.88 564.084C1339.49 564.657 1337.97 564.807 1336.5 564.515C1335.03 564.222 1333.68 563.501 1332.62 562.442C1331.56 561.382 1330.84 560.032 1330.55 558.563C1330.26 557.093 1330.41 555.57 1330.98 554.186C1331.55 552.802 1332.53 551.619 1333.77 550.786C1335.02 549.954 1336.48 549.51 1337.98 549.51C1339.99 549.51 1341.92 550.308 1343.34 551.729C1344.76 553.149 1345.56 555.076 1345.56 557.085Z" fill="white"/>
<path d="M1363.52 564.66C1367.7 564.66 1371.1 561.269 1371.1 557.085C1371.1 552.901 1367.7 549.51 1363.52 549.51C1359.34 549.51 1355.94 552.901 1355.94 557.085C1355.94 561.269 1359.34 564.66 1363.52 564.66Z" fill="white"/>
<path d="M1388.95 564.66C1393.13 564.66 1396.52 561.269 1396.52 557.085C1396.52 552.901 1393.13 549.51 1388.95 549.51C1384.76 549.51 1381.37 552.901 1381.37 557.085C1381.37 561.269 1384.76 564.66 1388.95 564.66Z" fill="white"/>
<path d="M1243.9 585.99C1243.9 587.488 1243.45 588.953 1242.62 590.198C1241.79 591.444 1240.6 592.415 1239.22 592.988C1237.84 593.562 1236.31 593.712 1234.84 593.419C1233.37 593.127 1232.02 592.406 1230.96 591.346C1229.9 590.287 1229.18 588.937 1228.89 587.468C1228.6 585.998 1228.75 584.475 1229.32 583.091C1229.9 581.707 1230.87 580.524 1232.11 579.691C1233.36 578.859 1234.82 578.415 1236.32 578.415C1238.33 578.415 1240.26 579.213 1241.68 580.633C1243.1 582.054 1243.9 583.981 1243.9 585.99Z" fill="white"/>
<path d="M1269.35 585.99C1269.35 587.488 1268.9 588.953 1268.07 590.198C1267.24 591.444 1266.05 592.415 1264.67 592.988C1263.28 593.562 1261.76 593.712 1260.29 593.419C1258.82 593.127 1257.47 592.406 1256.41 591.346C1255.35 590.287 1254.63 588.937 1254.34 587.468C1254.05 585.998 1254.2 584.475 1254.77 583.091C1255.34 581.707 1256.32 580.524 1257.56 579.691C1258.81 578.859 1260.27 578.415 1261.77 578.415C1263.78 578.415 1265.71 579.213 1267.13 580.633C1268.55 582.054 1269.35 583.981 1269.35 585.99Z" fill="white"/>
<path d="M1294.77 585.99C1294.77 587.488 1294.33 588.953 1293.49 590.198C1292.66 591.444 1291.48 592.415 1290.09 592.988C1288.71 593.562 1287.19 593.712 1285.72 593.419C1284.25 593.127 1282.9 592.406 1281.84 591.346C1280.78 590.287 1280.06 588.937 1279.77 587.468C1279.47 585.998 1279.62 584.475 1280.2 583.091C1280.77 581.707 1281.74 580.524 1282.99 579.691C1284.23 578.859 1285.7 578.415 1287.2 578.415C1289.21 578.415 1291.13 579.213 1292.55 580.633C1293.97 582.054 1294.77 583.981 1294.77 585.99Z" fill="white"/>
<path d="M1320.22 585.99C1320.22 587.488 1319.78 588.953 1318.94 590.198C1318.11 591.444 1316.93 592.415 1315.54 592.988C1314.16 593.562 1312.64 593.712 1311.17 593.419C1309.7 593.127 1308.35 592.406 1307.29 591.346C1306.23 590.287 1305.51 588.937 1305.22 587.468C1304.92 585.998 1305.07 584.475 1305.65 583.091C1306.22 581.707 1307.19 580.524 1308.44 579.691C1309.68 578.859 1311.15 578.415 1312.64 578.415C1314.65 578.415 1316.58 579.213 1318 580.633C1319.42 582.054 1320.22 583.981 1320.22 585.99Z" fill="white"/>
<path d="M1345.56 585.99C1345.56 587.488 1345.11 588.953 1344.28 590.198C1343.45 591.444 1342.26 592.415 1340.88 592.988C1339.49 593.562 1337.97 593.712 1336.5 593.419C1335.03 593.127 1333.68 592.406 1332.62 591.346C1331.56 590.287 1330.84 588.937 1330.55 587.468C1330.26 585.998 1330.41 584.475 1330.98 583.091C1331.55 581.707 1332.53 580.524 1333.77 579.691C1335.02 578.859 1336.48 578.415 1337.98 578.415C1339.99 578.415 1341.92 579.213 1343.34 580.633C1344.76 582.054 1345.56 583.981 1345.56 585.99Z" fill="white"/>
<path d="M1371.1 585.99C1371.1 587.488 1370.65 588.953 1369.82 590.198C1368.99 591.444 1367.8 592.415 1366.42 592.988C1365.03 593.562 1363.51 593.712 1362.04 593.419C1360.57 593.127 1359.22 592.406 1358.16 591.346C1357.1 590.287 1356.38 588.937 1356.09 587.468C1355.8 585.998 1355.95 584.475 1356.52 583.091C1357.09 581.707 1358.07 580.524 1359.31 579.691C1360.56 578.859 1362.02 578.415 1363.52 578.415C1365.53 578.415 1367.46 579.213 1368.88 580.633C1370.3 582.054 1371.1 583.981 1371.1 585.99Z" fill="white"/>
<path d="M1396.52 585.99C1396.52 587.488 1396.08 588.953 1395.25 590.198C1394.41 591.444 1393.23 592.415 1391.85 592.988C1390.46 593.562 1388.94 593.712 1387.47 593.419C1386 593.127 1384.65 592.406 1383.59 591.346C1382.53 590.287 1381.81 588.937 1381.52 587.468C1381.22 585.998 1381.37 584.475 1381.95 583.091C1382.52 581.707 1383.49 580.524 1384.74 579.691C1385.98 578.859 1387.45 578.415 1388.95 578.415C1390.96 578.415 1392.88 579.213 1394.3 580.633C1395.72 582.054 1396.52 583.981 1396.52 585.99Z" fill="white"/>
<path d="M1236.32 622.47C1240.5 622.47 1243.9 619.078 1243.9 614.895C1243.9 610.711 1240.5 607.319 1236.32 607.319C1232.14 607.319 1228.75 610.711 1228.75 614.895C1228.75 619.078 1232.14 622.47 1236.32 622.47Z" fill="white"/>
<path d="M1269.35 614.895C1269.35 616.393 1268.9 617.857 1268.07 619.103C1267.24 620.349 1266.05 621.32 1264.67 621.893C1263.28 622.467 1261.76 622.617 1260.29 622.324C1258.82 622.032 1257.47 621.311 1256.41 620.251C1255.35 619.192 1254.63 617.842 1254.34 616.372C1254.05 614.903 1254.2 613.38 1254.77 611.996C1255.34 610.611 1256.32 609.428 1257.56 608.596C1258.81 607.764 1260.27 607.319 1261.77 607.319C1263.78 607.319 1265.71 608.117 1267.13 609.538C1268.55 610.959 1269.35 612.885 1269.35 614.895Z" fill="white"/>
<path d="M1294.77 614.895C1294.77 616.393 1294.33 617.857 1293.49 619.103C1292.66 620.349 1291.48 621.32 1290.09 621.893C1288.71 622.467 1287.19 622.617 1285.72 622.324C1284.25 622.032 1282.9 621.311 1281.84 620.251C1280.78 619.192 1280.06 617.842 1279.77 616.372C1279.47 614.903 1279.62 613.38 1280.2 611.996C1280.77 610.611 1281.74 609.428 1282.99 608.596C1284.23 607.764 1285.7 607.319 1287.2 607.319C1289.21 607.319 1291.13 608.117 1292.55 609.538C1293.97 610.959 1294.77 612.885 1294.77 614.895Z" fill="white"/>
<path d="M1312.64 622.47C1316.83 622.47 1320.22 619.078 1320.22 614.895C1320.22 610.711 1316.83 607.319 1312.64 607.319C1308.46 607.319 1305.07 610.711 1305.07 614.895C1305.07 619.078 1308.46 622.47 1312.64 622.47Z" fill="white"/>
<path d="M1345.56 614.895C1345.56 616.393 1345.11 617.857 1344.28 619.103C1343.45 620.349 1342.26 621.32 1340.88 621.893C1339.49 622.467 1337.97 622.617 1336.5 622.324C1335.03 622.032 1333.68 621.311 1332.62 620.251C1331.56 619.192 1330.84 617.842 1330.55 616.372C1330.26 614.903 1330.41 613.38 1330.98 611.996C1331.55 610.611 1332.53 609.428 1333.77 608.596C1335.02 607.764 1336.48 607.319 1337.98 607.319C1339.99 607.319 1341.92 608.117 1343.34 609.538C1344.76 610.959 1345.56 612.885 1345.56 614.895Z" fill="white"/>
<path d="M1363.52 622.47C1367.7 622.47 1371.1 619.078 1371.1 614.895C1371.1 610.711 1367.7 607.319 1363.52 607.319C1359.34 607.319 1355.94 610.711 1355.94 614.895C1355.94 619.078 1359.34 622.47 1363.52 622.47Z" fill="white"/>
<path d="M1388.95 622.47C1393.13 622.47 1396.52 619.078 1396.52 614.895C1396.52 610.711 1393.13 607.319 1388.95 607.319C1384.76 607.319 1381.37 610.711 1381.37 614.895C1381.37 619.078 1384.76 622.47 1388.95 622.47Z" fill="white"/>
<path d="M1236.32 651.375C1240.5 651.375 1243.9 647.983 1243.9 643.799C1243.9 639.616 1240.5 636.224 1236.32 636.224C1232.14 636.224 1228.75 639.616 1228.75 643.799C1228.75 647.983 1232.14 651.375 1236.32 651.375Z" fill="white"/>
<path d="M1269.35 643.799C1269.35 645.298 1268.9 646.762 1268.07 648.008C1267.24 649.254 1266.05 650.225 1264.67 650.798C1263.28 651.371 1261.76 651.521 1260.29 651.229C1258.82 650.937 1257.47 650.215 1256.41 649.156C1255.35 648.096 1254.63 646.747 1254.34 645.277C1254.05 643.808 1254.2 642.285 1254.77 640.9C1255.34 639.516 1256.32 638.333 1257.56 637.501C1258.81 636.668 1260.27 636.224 1261.77 636.224C1263.78 636.224 1265.71 637.022 1267.13 638.443C1268.55 639.863 1269.35 641.79 1269.35 643.799Z" fill="white"/>
<path d="M1294.77 643.799C1294.77 645.298 1294.33 646.762 1293.49 648.008C1292.66 649.254 1291.48 650.225 1290.09 650.798C1288.71 651.371 1287.19 651.521 1285.72 651.229C1284.25 650.937 1282.9 650.215 1281.84 649.156C1280.78 648.096 1280.06 646.747 1279.77 645.277C1279.47 643.808 1279.62 642.285 1280.2 640.9C1280.77 639.516 1281.74 638.333 1282.99 637.501C1284.23 636.668 1285.7 636.224 1287.2 636.224C1289.21 636.224 1291.13 637.022 1292.55 638.443C1293.97 639.863 1294.77 641.79 1294.77 643.799Z" fill="white"/>
<path d="M1312.64 651.375C1316.83 651.375 1320.22 647.983 1320.22 643.799C1320.22 639.616 1316.83 636.224 1312.64 636.224C1308.46 636.224 1305.07 639.616 1305.07 643.799C1305.07 647.983 1308.46 651.375 1312.64 651.375Z" fill="white"/>
<path d="M1345.56 643.799C1345.56 645.298 1345.11 646.762 1344.28 648.008C1343.45 649.254 1342.26 650.225 1340.88 650.798C1339.49 651.371 1337.97 651.521 1336.5 651.229C1335.03 650.937 1333.68 650.215 1332.62 649.156C1331.56 648.096 1330.84 646.747 1330.55 645.277C1330.26 643.808 1330.41 642.285 1330.98 640.9C1331.55 639.516 1332.53 638.333 1333.77 637.501C1335.02 636.668 1336.48 636.224 1337.98 636.224C1339.99 636.224 1341.92 637.022 1343.34 638.443C1344.76 639.863 1345.56 641.79 1345.56 643.799Z" fill="white"/>
<path d="M1363.52 651.375C1367.7 651.375 1371.1 647.983 1371.1 643.799C1371.1 639.616 1367.7 636.224 1363.52 636.224C1359.34 636.224 1355.94 639.616 1355.94 643.799C1355.94 647.983 1359.34 651.375 1363.52 651.375Z" fill="white"/>
<path d="M1388.95 651.375C1393.13 651.375 1396.52 647.983 1396.52 643.799C1396.52 639.616 1393.13 636.224 1388.95 636.224C1384.76 636.224 1381.37 639.616 1381.37 643.799C1381.37 647.983 1384.76 651.375 1388.95 651.375Z" fill="white"/>
</g>
<mask id="mask2_106_445" style="mask-type:luminance" maskUnits="userSpaceOnUse" x="286" y="740" width="228" height="228">
<path d="M510.85 879.313C524.95 818.24 486.87 757.3 425.798 743.2C364.725 729.101 303.785 767.18 289.685 828.253C275.586 889.326 313.665 950.265 374.738 964.365C435.811 978.465 496.75 940.385 510.85 879.313Z" fill="white"/>
</mask>
<g mask="url(#mask2_106_445)">
<g opacity="0.8">
<path d="M309.191 732.117C309.191 733.746 308.708 735.339 307.803 736.694C306.897 738.049 305.611 739.105 304.105 739.729C302.6 740.352 300.943 740.515 299.345 740.197C297.747 739.88 296.279 739.095 295.126 737.943C293.974 736.79 293.189 735.322 292.872 733.724C292.554 732.126 292.717 730.469 293.34 728.964C293.964 727.459 295.02 726.172 296.375 725.266C297.73 724.361 299.323 723.878 300.952 723.878C303.137 723.878 305.233 724.746 306.778 726.291C308.323 727.836 309.191 729.932 309.191 732.117Z" fill="white"/>
<path d="M336.814 732.117C336.814 733.746 336.331 735.339 335.426 736.694C334.521 738.049 333.234 739.105 331.728 739.729C330.223 740.352 328.566 740.515 326.968 740.197C325.37 739.88 323.902 739.095 322.75 737.943C321.597 736.79 320.813 735.322 320.495 733.724C320.177 732.126 320.34 730.469 320.964 728.964C321.587 727.459 322.643 726.172 323.998 725.266C325.353 724.361 326.946 723.878 328.575 723.878C330.761 723.878 332.856 724.746 334.401 726.291C335.946 727.836 336.814 729.932 336.814 732.117Z" fill="white"/>
<path d="M364.438 732.117C364.438 733.747 363.954 735.341 363.048 736.697C362.141 738.052 360.853 739.108 359.346 739.731C357.84 740.354 356.182 740.516 354.583 740.196C352.984 739.876 351.516 739.089 350.365 737.935C349.214 736.78 348.431 735.31 348.115 733.71C347.8 732.11 347.967 730.453 348.594 728.948C349.221 727.443 350.28 726.158 351.638 725.255C352.996 724.353 354.591 723.873 356.222 723.878C357.303 723.878 358.373 724.091 359.371 724.506C360.369 724.92 361.276 725.527 362.039 726.292C362.803 727.058 363.407 727.966 363.819 728.966C364.23 729.965 364.441 731.036 364.438 732.117Z" fill="white"/>
<path d="M392.061 732.117C392.061 733.747 391.577 735.341 390.671 736.697C389.765 738.052 388.476 739.108 386.97 739.731C385.463 740.354 383.805 740.516 382.206 740.196C380.608 739.876 379.139 739.089 377.988 737.935C376.837 736.78 376.054 735.31 375.739 733.71C375.423 732.11 375.59 730.453 376.217 728.948C376.844 727.443 377.904 726.158 379.261 725.255C380.619 724.353 382.214 723.873 383.845 723.878C384.926 723.878 385.996 724.091 386.994 724.506C387.993 724.92 388.899 725.527 389.663 726.292C390.426 727.058 391.031 727.966 391.442 728.966C391.854 729.965 392.064 731.036 392.061 732.117Z" fill="white"/>
<path d="M419.707 732.117C419.707 733.746 419.224 735.339 418.319 736.694C417.413 738.049 416.127 739.105 414.621 739.729C413.116 740.352 411.459 740.515 409.861 740.197C408.263 739.88 406.795 739.095 405.642 737.943C404.49 736.79 403.706 735.322 403.388 733.724C403.07 732.126 403.233 730.469 403.856 728.964C404.48 727.459 405.536 726.172 406.891 725.266C408.246 724.361 409.839 723.878 411.468 723.878C413.653 723.878 415.749 724.746 417.294 726.291C418.839 727.836 419.707 729.932 419.707 732.117Z" fill="white"/>
<path d="M447.33 732.117C447.33 733.746 446.847 735.339 445.942 736.694C445.037 738.049 443.75 739.105 442.244 739.729C440.739 740.352 439.082 740.515 437.484 740.197C435.886 739.88 434.418 739.095 433.266 737.943C432.114 736.79 431.329 735.322 431.011 733.724C430.693 732.126 430.856 730.469 431.48 728.964C432.103 727.459 433.159 726.172 434.514 725.266C435.869 724.361 437.462 723.878 439.092 723.878C441.277 723.878 443.372 724.746 444.917 726.291C446.462 727.836 447.33 729.932 447.33 732.117Z" fill="white"/>
<path d="M474.954 732.117C474.954 733.746 474.471 735.339 473.565 736.694C472.66 738.049 471.373 739.105 469.868 739.729C468.362 740.352 466.706 740.515 465.108 740.197C463.509 739.88 462.041 739.095 460.889 737.943C459.737 736.79 458.952 735.322 458.634 733.724C458.316 732.126 458.479 730.469 459.103 728.964C459.727 727.459 460.783 726.172 462.138 725.266C463.492 724.361 465.085 723.878 466.715 723.878C468.9 723.878 470.996 724.746 472.541 726.291C474.086 727.836 474.954 729.932 474.954 732.117Z" fill="white"/>
<path d="M502.577 732.117C502.577 733.747 502.093 735.341 501.187 736.697C500.28 738.052 498.992 739.108 497.485 739.731C495.979 740.354 494.321 740.516 492.722 740.196C491.123 739.876 489.655 739.089 488.504 737.935C487.353 736.78 486.57 735.31 486.255 733.71C485.939 732.11 486.106 730.453 486.733 728.948C487.36 727.443 488.419 726.158 489.777 725.255C491.135 724.353 492.73 723.873 494.361 723.878C495.442 723.878 496.512 724.091 497.51 724.506C498.509 724.92 499.415 725.527 500.179 726.292C500.942 727.058 501.546 727.966 501.958 728.966C502.37 729.965 502.58 731.036 502.577 732.117Z" fill="white"/>
<path d="M530.2 732.117C530.2 733.747 529.716 735.341 528.81 736.697C527.904 738.052 526.616 739.108 525.109 739.731C523.602 740.354 521.944 740.516 520.345 740.196C518.747 739.876 517.279 739.089 516.127 737.935C514.976 736.78 514.193 735.31 513.878 733.71C513.563 732.11 513.729 730.453 514.356 728.948C514.983 727.443 516.043 726.158 517.401 725.255C518.758 724.353 520.354 723.873 521.984 723.878C523.065 723.878 524.135 724.091 525.134 724.506C526.132 724.92 527.039 725.527 527.802 726.292C528.565 727.058 529.17 727.966 529.581 728.966C529.993 729.965 530.203 731.036 530.2 732.117Z" fill="white"/>
<path d="M309.191 763.516C309.191 765.146 308.708 766.739 307.803 768.094C306.897 769.448 305.611 770.504 304.105 771.128C302.6 771.752 300.943 771.915 299.345 771.597C297.747 771.279 296.279 770.494 295.126 769.342C293.974 768.19 293.189 766.722 292.872 765.124C292.554 763.525 292.717 761.869 293.34 760.363C293.964 758.858 295.02 757.571 296.375 756.666C297.73 755.761 299.323 755.277 300.952 755.277C303.137 755.277 305.233 756.145 306.778 757.69C308.323 759.236 309.191 761.331 309.191 763.516Z" fill="white"/>
<path d="M336.814 763.516C336.814 765.146 336.331 766.739 335.426 768.094C334.521 769.448 333.234 770.504 331.728 771.128C330.223 771.752 328.566 771.915 326.968 771.597C325.37 771.279 323.902 770.494 322.75 769.342C321.597 768.19 320.813 766.722 320.495 765.124C320.177 763.525 320.34 761.869 320.964 760.363C321.587 758.858 322.643 757.571 323.998 756.666C325.353 755.761 326.946 755.277 328.575 755.277C330.761 755.277 332.856 756.145 334.401 757.69C335.946 759.236 336.814 761.331 336.814 763.516Z" fill="white"/>
<path d="M364.438 763.516C364.438 765.147 363.954 766.741 363.048 768.096C362.141 769.451 360.853 770.507 359.346 771.13C357.84 771.753 356.182 771.915 354.583 771.595C352.984 771.275 351.516 770.488 350.365 769.334C349.214 768.179 348.431 766.709 348.115 765.11C347.8 763.51 347.967 761.853 348.594 760.347C349.221 758.842 350.28 757.557 351.638 756.655C352.996 755.752 354.591 755.273 356.222 755.277C357.303 755.277 358.373 755.491 359.371 755.905C360.369 756.319 361.276 756.927 362.039 757.692C362.803 758.457 363.407 759.366 363.819 760.365C364.23 761.365 364.441 762.435 364.438 763.516Z" fill="white"/>
<path d="M392.061 763.516C392.061 765.147 391.577 766.741 390.671 768.096C389.765 769.451 388.476 770.507 386.97 771.13C385.463 771.753 383.805 771.915 382.206 771.595C380.608 771.275 379.139 770.488 377.988 769.334C376.837 768.179 376.054 766.709 375.739 765.11C375.423 763.51 375.59 761.853 376.217 760.347C376.844 758.842 377.904 757.557 379.261 756.655C380.619 755.752 382.214 755.273 383.845 755.277C384.926 755.277 385.996 755.491 386.994 755.905C387.993 756.319 388.899 756.927 389.663 757.692C390.426 758.457 391.031 759.366 391.442 760.365C391.854 761.365 392.064 762.435 392.061 763.516Z" fill="white"/>
<path d="M419.707 763.516C419.707 765.146 419.224 766.739 418.319 768.094C417.413 769.448 416.127 770.504 414.621 771.128C413.116 771.752 411.459 771.915 409.861 771.597C408.263 771.279 406.795 770.494 405.642 769.342C404.49 768.19 403.706 766.722 403.388 765.124C403.07 763.525 403.233 761.869 403.856 760.363C404.48 758.858 405.536 757.571 406.891 756.666C408.246 755.761 409.839 755.277 411.468 755.277C413.653 755.277 415.749 756.145 417.294 757.69C418.839 759.236 419.707 761.331 419.707 763.516Z" fill="white"/>
<path d="M447.33 763.516C447.33 765.146 446.847 766.739 445.942 768.094C445.037 769.448 443.75 770.504 442.244 771.128C440.739 771.752 439.082 771.915 437.484 771.597C435.886 771.279 434.418 770.494 433.266 769.342C432.114 768.19 431.329 766.722 431.011 765.124C430.693 763.525 430.856 761.869 431.48 760.363C432.103 758.858 433.159 757.571 434.514 756.666C435.869 755.761 437.462 755.277 439.092 755.277C441.277 755.277 443.372 756.145 444.917 757.69C446.462 759.236 447.33 761.331 447.33 763.516Z" fill="white"/>
<path d="M474.954 763.517C474.945 765.145 474.453 766.734 473.541 768.084C472.63 769.433 471.338 770.482 469.831 771.098C468.323 771.714 466.667 771.869 465.071 771.544C463.475 771.219 462.012 770.429 460.865 769.272C459.718 768.116 458.94 766.646 458.628 765.047C458.317 763.449 458.486 761.794 459.114 760.292C459.742 758.789 460.802 757.507 462.159 756.606C463.516 755.706 465.109 755.227 466.738 755.232C467.821 755.235 468.894 755.452 469.894 755.87C470.894 756.288 471.802 756.9 472.565 757.669C473.328 758.439 473.932 759.352 474.342 760.355C474.752 761.358 474.96 762.433 474.954 763.517Z" fill="white"/>
<path d="M502.577 763.516C502.577 765.147 502.093 766.741 501.187 768.096C500.28 769.451 498.992 770.507 497.485 771.13C495.979 771.753 494.321 771.915 492.722 771.595C491.123 771.275 489.655 770.488 488.504 769.334C487.353 768.179 486.57 766.709 486.255 765.11C485.939 763.51 486.106 761.853 486.733 760.347C487.36 758.842 488.419 757.557 489.777 756.655C491.135 755.752 492.73 755.273 494.361 755.277C495.442 755.277 496.512 755.491 497.51 755.905C498.509 756.319 499.415 756.927 500.179 757.692C500.942 758.457 501.546 759.366 501.958 760.365C502.37 761.365 502.58 762.435 502.577 763.516Z" fill="white"/>
<path d="M530.2 763.516C530.2 765.147 529.716 766.741 528.81 768.096C527.904 769.451 526.616 770.507 525.109 771.13C523.602 771.753 521.944 771.915 520.345 771.595C518.747 771.275 517.279 770.488 516.127 769.334C514.976 768.179 514.193 766.709 513.878 765.11C513.563 763.51 513.729 761.853 514.356 760.347C514.983 758.842 516.043 757.557 517.401 756.655C518.758 755.752 520.354 755.273 521.984 755.277C523.065 755.277 524.135 755.491 525.134 755.905C526.132 756.319 527.039 756.927 527.802 757.692C528.565 758.457 529.17 759.366 529.581 760.365C529.993 761.365 530.203 762.435 530.2 763.516Z" fill="white"/>
<path d="M309.191 794.893C309.196 796.523 308.716 798.118 307.814 799.476C306.911 800.834 305.626 801.894 304.121 802.521C302.616 803.148 300.959 803.314 299.359 802.999C297.759 802.684 296.289 801.901 295.134 800.75C293.98 799.598 293.193 798.13 292.873 796.531C292.553 794.933 292.715 793.275 293.338 791.768C293.961 790.261 295.017 788.973 296.372 788.067C297.728 787.161 299.322 786.677 300.952 786.677C303.133 786.677 305.225 787.542 306.77 789.082C308.314 790.622 309.185 792.712 309.191 794.893Z" fill="white"/>
<path d="M336.814 794.893C336.819 796.523 336.34 798.118 335.437 799.476C334.534 800.834 333.249 801.894 331.744 802.521C330.239 803.148 328.582 803.314 326.982 802.999C325.382 802.684 323.912 801.901 322.758 800.75C321.603 799.598 320.816 798.13 320.497 796.531C320.177 794.933 320.339 793.275 320.962 791.768C321.584 790.261 322.64 788.973 323.996 788.067C325.351 787.161 326.945 786.677 328.575 786.677C330.757 786.677 332.849 787.542 334.393 789.082C335.938 790.622 336.808 792.712 336.814 794.893Z" fill="white"/>
<path d="M364.438 794.893C364.442 796.524 363.962 798.12 363.059 799.479C362.155 800.837 360.869 801.897 359.362 802.523C357.856 803.149 356.197 803.315 354.597 802.997C352.997 802.68 351.527 801.895 350.373 800.741C349.219 799.588 348.434 798.118 348.117 796.517C347.8 794.917 347.965 793.259 348.591 791.752C349.218 790.246 350.277 788.959 351.636 788.056C352.994 787.152 354.59 786.672 356.222 786.677C358.399 786.683 360.485 787.55 362.025 789.09C363.564 790.629 364.432 792.716 364.438 794.893Z" fill="white"/>
<path d="M392.061 794.893C392.065 796.524 391.586 798.12 390.682 799.479C389.778 800.837 388.492 801.897 386.986 802.523C385.479 803.149 383.821 803.315 382.22 802.997C380.62 802.68 379.15 801.895 377.996 800.741C376.843 799.588 376.058 798.118 375.74 796.517C375.423 794.917 375.588 793.259 376.215 791.752C376.841 790.246 377.901 788.959 379.259 788.056C380.617 787.152 382.213 786.672 383.845 786.677C386.022 786.683 388.108 787.55 389.648 789.09C391.187 790.629 392.055 792.716 392.061 794.893Z" fill="white"/>
<path d="M419.707 794.893C419.712 796.523 419.232 798.118 418.33 799.476C417.427 800.834 416.142 801.894 414.637 802.521C413.132 803.148 411.475 803.314 409.875 802.999C408.275 802.684 406.805 801.901 405.651 800.75C404.496 799.598 403.709 798.13 403.389 796.531C403.07 794.933 403.231 793.275 403.854 791.768C404.477 790.261 405.533 788.973 406.889 788.067C408.244 787.161 409.838 786.677 411.468 786.677C413.649 786.677 415.741 787.542 417.286 789.082C418.83 790.622 419.701 792.712 419.707 794.893Z" fill="white"/>
<path d="M447.33 794.893C447.335 796.523 446.856 798.118 445.953 799.476C445.05 800.834 443.765 801.894 442.26 802.521C440.755 803.148 439.098 803.314 437.498 802.999C435.899 802.684 434.428 801.901 433.274 800.75C432.119 799.598 431.332 798.13 431.013 796.531C430.693 794.933 430.855 793.275 431.478 791.768C432.1 790.261 433.156 788.973 434.512 788.067C435.867 787.161 437.461 786.677 439.092 786.677C441.273 786.677 443.365 787.542 444.909 789.082C446.454 790.622 447.324 792.712 447.33 794.893Z" fill="white"/>
<path d="M474.954 794.893C474.958 796.523 474.479 798.118 473.576 799.476C472.674 800.834 471.389 801.894 469.884 802.521C468.378 803.148 466.721 803.314 465.122 802.999C463.522 802.684 462.052 801.901 460.897 800.75C459.743 799.598 458.956 798.13 458.636 796.531C458.316 794.933 458.478 793.275 459.101 791.768C459.724 790.261 460.78 788.973 462.135 788.067C463.49 787.161 465.084 786.677 466.715 786.677C468.896 786.677 470.988 787.542 472.532 789.082C474.077 790.622 474.948 792.712 474.954 794.893Z" fill="white"/>
<path d="M502.577 794.893C502.581 796.524 502.101 798.12 501.198 799.479C500.294 800.837 499.008 801.897 497.501 802.523C495.995 803.149 494.337 803.315 492.736 802.997C491.136 802.68 489.666 801.895 488.512 800.741C487.359 799.588 486.573 798.118 486.256 796.517C485.939 794.917 486.104 793.259 486.731 791.752C487.357 790.246 488.416 788.959 489.775 788.056C491.133 787.152 492.729 786.672 494.361 786.677C496.538 786.683 498.624 787.55 500.164 789.09C501.703 790.629 502.571 792.716 502.577 794.893Z" fill="white"/>
<path d="M530.2 794.893C530.205 796.524 529.725 798.12 528.821 799.479C527.918 800.837 526.631 801.897 525.125 802.523C523.618 803.149 521.96 803.315 520.36 802.997C518.759 802.68 517.289 801.895 516.135 800.741C514.982 799.588 514.197 798.118 513.879 796.517C513.562 794.917 513.727 793.259 514.354 791.752C514.98 790.246 516.04 788.959 517.398 788.056C518.757 787.152 520.353 786.672 521.984 786.677C524.161 786.683 526.248 787.55 527.787 789.09C529.327 790.629 530.194 792.716 530.2 794.893Z" fill="white"/>
<path d="M309.191 826.292C309.191 827.922 308.708 829.515 307.803 830.869C306.897 832.224 305.611 833.28 304.105 833.904C302.6 834.527 300.943 834.691 299.345 834.373C297.747 834.055 296.279 833.27 295.126 832.118C293.974 830.966 293.189 829.498 292.872 827.899C292.554 826.301 292.717 824.645 293.34 823.139C293.964 821.634 295.02 820.347 296.375 819.442C297.73 818.536 299.323 818.053 300.952 818.053C302.034 818.053 303.105 818.266 304.105 818.68C305.105 819.094 306.013 819.701 306.778 820.466C307.543 821.231 308.15 822.14 308.564 823.139C308.978 824.139 309.191 825.21 309.191 826.292Z" fill="white"/>
<path d="M336.814 826.292C336.814 827.922 336.331 829.515 335.426 830.869C334.521 832.224 333.234 833.28 331.728 833.904C330.223 834.527 328.566 834.691 326.968 834.373C325.37 834.055 323.902 833.27 322.75 832.118C321.597 830.966 320.813 829.498 320.495 827.899C320.177 826.301 320.34 824.645 320.964 823.139C321.587 821.634 322.643 820.347 323.998 819.442C325.353 818.536 326.946 818.053 328.575 818.053C329.657 818.053 330.729 818.266 331.728 818.68C332.728 819.094 333.636 819.701 334.401 820.466C335.166 821.231 335.773 822.14 336.187 823.139C336.601 824.139 336.814 825.21 336.814 826.292Z" fill="white"/>
<path d="M364.438 826.292C364.438 827.923 363.954 829.516 363.048 830.872C362.141 832.227 360.853 833.283 359.346 833.906C357.84 834.529 356.182 834.691 354.583 834.371C352.984 834.051 351.516 833.264 350.365 832.11C349.214 830.955 348.431 829.485 348.115 827.885C347.8 826.286 347.967 824.628 348.594 823.123C349.221 821.618 350.28 820.333 351.638 819.431C352.996 818.528 354.591 818.049 356.222 818.053C357.303 818.053 358.373 818.266 359.371 818.681C360.369 819.095 361.276 819.702 362.039 820.468C362.803 821.233 363.407 822.142 363.819 823.141C364.23 824.14 364.441 825.211 364.438 826.292Z" fill="white"/>
<path d="M392.061 826.292C392.061 827.923 391.577 829.516 390.671 830.872C389.765 832.227 388.476 833.283 386.97 833.906C385.463 834.529 383.805 834.691 382.206 834.371C380.608 834.051 379.139 833.264 377.988 832.11C376.837 830.955 376.054 829.485 375.739 827.885C375.423 826.286 375.59 824.628 376.217 823.123C376.844 821.618 377.904 820.333 379.261 819.431C380.619 818.528 382.214 818.049 383.845 818.053C384.926 818.053 385.996 818.266 386.994 818.681C387.993 819.095 388.899 819.702 389.663 820.468C390.426 821.233 391.031 822.142 391.442 823.141C391.854 824.14 392.064 825.211 392.061 826.292Z" fill="white"/>
<path d="M419.707 826.292C419.707 827.922 419.224 829.515 418.319 830.869C417.413 832.224 416.127 833.28 414.621 833.904C413.116 834.527 411.459 834.691 409.861 834.373C408.263 834.055 406.795 833.27 405.642 832.118C404.49 830.966 403.706 829.498 403.388 827.899C403.07 826.301 403.233 824.645 403.856 823.139C404.48 821.634 405.536 820.347 406.891 819.442C408.246 818.536 409.839 818.053 411.468 818.053C412.55 818.053 413.622 818.266 414.621 818.68C415.621 819.094 416.529 819.701 417.294 820.466C418.059 821.231 418.666 822.14 419.08 823.139C419.494 824.139 419.707 825.21 419.707 826.292Z" fill="white"/>
<path d="M447.33 826.292C447.33 827.922 446.847 829.515 445.942 830.869C445.037 832.224 443.75 833.28 442.244 833.904C440.739 834.527 439.082 834.691 437.484 834.373C435.886 834.055 434.418 833.27 433.266 832.118C432.114 830.966 431.329 829.498 431.011 827.899C430.693 826.301 430.856 824.645 431.48 823.139C432.103 821.634 433.159 820.347 434.514 819.442C435.869 818.536 437.462 818.053 439.092 818.053C440.174 818.053 441.245 818.266 442.244 818.68C443.244 819.094 444.152 819.701 444.917 820.466C445.682 821.231 446.289 822.14 446.703 823.139C447.117 824.139 447.33 825.21 447.33 826.292Z" fill="white"/>
<path d="M474.954 826.292C474.954 827.922 474.471 829.515 473.565 830.869C472.66 832.224 471.373 833.28 469.868 833.904C468.362 834.527 466.706 834.691 465.108 834.373C463.509 834.055 462.041 833.27 460.889 832.118C459.737 830.966 458.952 829.498 458.634 827.899C458.316 826.301 458.479 824.645 459.103 823.139C459.727 821.634 460.783 820.347 462.138 819.442C463.492 818.536 465.085 818.053 466.715 818.053C467.797 818.053 468.868 818.266 469.868 818.68C470.867 819.094 471.776 819.701 472.541 820.466C473.306 821.231 473.913 822.14 474.327 823.139C474.741 824.139 474.954 825.21 474.954 826.292Z" fill="white"/>
<path d="M502.577 826.292C502.577 827.923 502.093 829.516 501.187 830.872C500.28 832.227 498.992 833.283 497.485 833.906C495.979 834.529 494.321 834.691 492.722 834.371C491.123 834.051 489.655 833.264 488.504 832.11C487.353 830.955 486.57 829.485 486.255 827.885C485.939 826.286 486.106 824.628 486.733 823.123C487.36 821.618 488.419 820.333 489.777 819.431C491.135 818.528 492.73 818.049 494.361 818.053C495.442 818.053 496.512 818.266 497.51 818.681C498.509 819.095 499.415 819.702 500.179 820.468C500.942 821.233 501.546 822.142 501.958 823.141C502.37 824.14 502.58 825.211 502.577 826.292Z" fill="white"/>
<path d="M530.2 826.292C530.2 827.923 529.716 829.516 528.81 830.872C527.904 832.227 526.616 833.283 525.109 833.906C523.602 834.529 521.944 834.691 520.345 834.371C518.747 834.051 517.279 833.264 516.127 832.11C514.976 830.955 514.193 829.485 513.878 827.885C513.563 826.286 513.729 824.628 514.356 823.123C514.983 821.618 516.043 820.333 517.401 819.431C518.758 818.528 520.354 818.049 521.984 818.053C523.065 818.053 524.135 818.266 525.134 818.681C526.132 819.095 527.039 819.702 527.802 820.468C528.565 821.233 529.17 822.142 529.581 823.141C529.993 824.14 530.203 825.211 530.2 826.292Z" fill="white"/>
<path d="M309.191 857.691C309.191 859.321 308.708 860.914 307.803 862.269C306.897 863.624 305.611 864.68 304.105 865.303C302.6 865.927 300.943 866.09 299.345 865.772C297.747 865.454 296.279 864.67 295.126 863.517C293.974 862.365 293.189 860.897 292.872 859.299C292.554 857.701 292.717 856.044 293.34 854.539C293.964 853.033 295.02 851.746 296.375 850.841C297.73 849.936 299.323 849.453 300.952 849.453C302.034 849.453 303.105 849.666 304.105 850.08C305.105 850.494 306.013 851.101 306.778 851.866C307.543 852.631 308.15 853.539 308.564 854.539C308.978 855.538 309.191 856.61 309.191 857.691Z" fill="white"/>
<path d="M336.814 857.691C336.814 859.321 336.331 860.914 335.426 862.269C334.521 863.624 333.234 864.68 331.728 865.303C330.223 865.927 328.566 866.09 326.968 865.772C325.37 865.454 323.902 864.67 322.75 863.517C321.597 862.365 320.813 860.897 320.495 859.299C320.177 857.701 320.34 856.044 320.964 854.539C321.587 853.033 322.643 851.746 323.998 850.841C325.353 849.936 326.946 849.453 328.575 849.453C329.657 849.453 330.729 849.666 331.728 850.08C332.728 850.494 333.636 851.101 334.401 851.866C335.166 852.631 335.773 853.539 336.187 854.539C336.601 855.538 336.814 856.61 336.814 857.691Z" fill="white"/>
<path d="M364.438 857.692C364.438 859.322 363.954 860.916 363.048 862.271C362.141 863.627 360.853 864.683 359.346 865.306C357.84 865.928 356.182 866.09 354.583 865.77C352.984 865.451 351.516 864.664 350.365 863.509C349.214 862.355 348.431 860.885 348.115 859.285C347.8 857.685 347.967 856.028 348.594 854.523C349.221 853.018 350.28 851.733 351.638 850.83C352.996 849.927 354.591 849.448 356.222 849.453C357.303 849.453 358.373 849.666 359.371 850.08C360.369 850.495 361.276 851.102 362.039 851.867C362.803 852.632 363.407 853.541 363.819 854.54C364.23 855.54 364.441 856.611 364.438 857.692Z" fill="white"/>
<path d="M392.061 857.692C392.061 859.322 391.577 860.916 390.671 862.271C389.765 863.627 388.476 864.683 386.97 865.306C385.463 865.928 383.805 866.09 382.206 865.77C380.608 865.451 379.139 864.664 377.988 863.509C376.837 862.355 376.054 860.885 375.739 859.285C375.423 857.685 375.59 856.028 376.217 854.523C376.844 853.018 377.904 851.733 379.261 850.83C380.619 849.927 382.214 849.448 383.845 849.453C384.926 849.453 385.996 849.666 386.994 850.08C387.993 850.495 388.899 851.102 389.663 851.867C390.426 852.632 391.031 853.541 391.442 854.54C391.854 855.54 392.064 856.611 392.061 857.692Z" fill="white"/>
<path d="M419.707 857.691C419.707 859.321 419.224 860.914 418.319 862.269C417.413 863.624 416.127 864.68 414.621 865.303C413.116 865.927 411.459 866.09 409.861 865.772C408.263 865.454 406.795 864.67 405.642 863.517C404.49 862.365 403.706 860.897 403.388 859.299C403.07 857.701 403.233 856.044 403.856 854.539C404.48 853.033 405.536 851.746 406.891 850.841C408.246 849.936 409.839 849.453 411.468 849.453C412.55 849.453 413.622 849.666 414.621 850.08C415.621 850.494 416.529 851.101 417.294 851.866C418.059 852.631 418.666 853.539 419.08 854.539C419.494 855.538 419.707 856.61 419.707 857.691Z" fill="white"/>
<path d="M447.33 857.691C447.33 859.321 446.847 860.914 445.942 862.269C445.037 863.624 443.75 864.68 442.244 865.303C440.739 865.927 439.082 866.09 437.484 865.772C435.886 865.454 434.418 864.67 433.266 863.517C432.114 862.365 431.329 860.897 431.011 859.299C430.693 857.701 430.856 856.044 431.48 854.539C432.103 853.033 433.159 851.746 434.514 850.841C435.869 849.936 437.462 849.453 439.092 849.453C440.174 849.453 441.245 849.666 442.244 850.08C443.244 850.494 444.152 851.101 444.917 851.866C445.682 852.631 446.289 853.539 446.703 854.539C447.117 855.538 447.33 856.61 447.33 857.691Z" fill="white"/>
<path d="M474.954 857.691C474.954 859.321 474.471 860.914 473.565 862.269C472.66 863.624 471.373 864.68 469.868 865.303C468.362 865.927 466.706 866.09 465.108 865.772C463.509 865.454 462.041 864.67 460.889 863.517C459.737 862.365 458.952 860.897 458.634 859.299C458.316 857.701 458.479 856.044 459.103 854.539C459.727 853.033 460.783 851.746 462.138 850.841C463.492 849.936 465.085 849.453 466.715 849.453C467.797 849.453 468.868 849.666 469.868 850.08C470.867 850.494 471.776 851.101 472.541 851.866C473.306 852.631 473.913 853.539 474.327 854.539C474.741 855.538 474.954 856.61 474.954 857.691Z" fill="white"/>
<path d="M502.577 857.692C502.577 859.322 502.093 860.916 501.187 862.271C500.28 863.627 498.992 864.683 497.485 865.306C495.979 865.928 494.321 866.09 492.722 865.77C491.123 865.451 489.655 864.664 488.504 863.509C487.353 862.355 486.57 860.885 486.255 859.285C485.939 857.685 486.106 856.028 486.733 854.523C487.36 853.018 488.419 851.733 489.777 850.83C491.135 849.927 492.73 849.448 494.361 849.453C495.442 849.453 496.512 849.666 497.51 850.08C498.509 850.495 499.415 851.102 500.179 851.867C500.942 852.632 501.546 853.541 501.958 854.54C502.37 855.54 502.58 856.611 502.577 857.692Z" fill="white"/>
<path d="M530.2 857.692C530.2 859.322 529.716 860.916 528.81 862.271C527.904 863.627 526.616 864.683 525.109 865.306C523.602 865.928 521.944 866.09 520.345 865.77C518.747 865.451 517.279 864.664 516.127 863.509C514.976 862.355 514.193 860.885 513.878 859.285C513.563 857.685 513.729 856.028 514.356 854.523C514.983 853.018 516.043 851.733 517.401 850.83C518.758 849.927 520.354 849.448 521.984 849.453C523.065 849.453 524.135 849.666 525.134 850.08C526.132 850.495 527.039 851.102 527.802 851.867C528.565 852.632 529.17 853.541 529.581 854.54C529.993 855.54 530.203 856.611 530.2 857.692Z" fill="white"/>
<path d="M309.191 889.069C309.196 890.7 308.716 892.295 307.814 893.653C306.911 895.01 305.626 896.07 304.121 896.697C302.616 897.324 300.959 897.491 299.359 897.175C297.759 896.86 296.289 896.077 295.135 894.926C293.98 893.774 293.193 892.307 292.873 890.708C292.554 889.109 292.715 887.451 293.338 885.944C293.961 884.438 295.017 883.149 296.373 882.243C297.728 881.337 299.322 880.853 300.952 880.853C303.133 880.853 305.226 881.718 306.77 883.258C308.314 884.798 309.185 886.888 309.191 889.069Z" fill="white"/>
<path d="M336.814 889.069C336.819 890.7 336.34 892.295 335.437 893.653C334.535 895.01 333.249 896.07 331.744 896.697C330.239 897.324 328.582 897.491 326.982 897.175C325.383 896.86 323.912 896.077 322.758 894.926C321.603 893.774 320.816 892.307 320.497 890.708C320.177 889.109 320.339 887.451 320.962 885.944C321.585 884.438 322.64 883.149 323.996 882.243C325.351 881.337 326.945 880.853 328.576 880.853C330.757 880.853 332.849 881.718 334.393 883.258C335.938 884.798 336.808 886.888 336.814 889.069Z" fill="white"/>
<path d="M364.438 889.069C364.442 890.701 363.962 892.297 363.059 893.655C362.155 895.013 360.869 896.073 359.362 896.699C357.856 897.326 356.197 897.491 354.597 897.174C352.997 896.856 351.527 896.071 350.373 894.918C349.219 893.764 348.434 892.294 348.117 890.694C347.8 889.093 347.965 887.435 348.591 885.928C349.218 884.422 350.277 883.136 351.636 882.232C352.994 881.328 354.59 880.849 356.222 880.853C358.399 880.859 360.485 881.727 362.025 883.266C363.564 884.806 364.432 886.892 364.438 889.069Z" fill="white"/>
<path d="M392.061 889.069C392.066 890.701 391.586 892.297 390.682 893.655C389.779 895.013 388.492 896.073 386.986 896.699C385.479 897.326 383.821 897.491 382.22 897.174C380.62 896.856 379.15 896.071 377.996 894.918C376.843 893.764 376.058 892.294 375.74 890.694C375.423 889.093 375.588 887.435 376.215 885.928C376.841 884.422 377.901 883.136 379.259 882.232C380.618 881.328 382.214 880.849 383.845 880.853C386.022 880.859 388.108 881.727 389.648 883.266C391.187 884.806 392.055 886.892 392.061 889.069Z" fill="white"/>
<path d="M419.707 889.069C419.712 890.7 419.232 892.295 418.33 893.653C417.427 895.01 416.142 896.07 414.637 896.697C413.132 897.324 411.475 897.491 409.875 897.175C408.275 896.86 406.805 896.077 405.651 894.926C404.496 893.774 403.709 892.307 403.389 890.708C403.07 889.109 403.231 887.451 403.854 885.944C404.477 884.438 405.533 883.149 406.889 882.243C408.244 881.337 409.838 880.853 411.468 880.853C413.649 880.853 415.742 881.718 417.286 883.258C418.83 884.798 419.701 886.888 419.707 889.069Z" fill="white"/>
<path d="M447.33 889.069C447.335 890.7 446.856 892.295 445.953 893.653C445.051 895.01 443.765 896.07 442.26 896.697C440.755 897.324 439.098 897.491 437.498 897.175C435.899 896.86 434.428 896.077 433.274 894.926C432.119 893.774 431.332 892.307 431.013 890.708C430.693 889.109 430.855 887.451 431.478 885.944C432.101 884.438 433.157 883.149 434.512 882.243C435.867 881.337 437.461 880.853 439.092 880.853C441.273 880.853 443.365 881.718 444.909 883.258C446.454 884.798 447.324 886.888 447.33 889.069Z" fill="white"/>
<path d="M474.954 889.069C474.958 890.7 474.479 892.295 473.576 893.653C472.674 895.01 471.389 896.07 469.884 896.697C468.379 897.324 466.721 897.491 465.122 897.175C463.522 896.86 462.052 896.077 460.897 894.926C459.743 893.774 458.956 892.307 458.636 890.708C458.316 889.109 458.478 887.451 459.101 885.944C459.724 884.438 460.78 883.149 462.135 882.243C463.491 881.337 465.084 880.853 466.715 880.853C468.896 880.853 470.988 881.718 472.533 883.258C474.077 884.798 474.948 886.888 474.954 889.069Z" fill="white"/>
<path d="M502.577 889.069C502.581 890.701 502.101 892.297 501.198 893.655C500.294 895.013 499.008 896.073 497.501 896.699C495.995 897.326 494.337 897.491 492.736 897.174C491.136 896.856 489.666 896.071 488.512 894.918C487.359 893.764 486.573 892.294 486.256 890.694C485.939 889.093 486.104 887.435 486.731 885.928C487.357 884.422 488.417 883.136 489.775 882.232C491.133 881.328 492.729 880.849 494.361 880.853C496.538 880.859 498.624 881.727 500.164 883.266C501.703 884.806 502.571 886.892 502.577 889.069Z" fill="white"/>
<path d="M530.2 889.069C530.205 890.701 529.725 892.297 528.821 893.655C527.918 895.013 526.631 896.073 525.125 896.699C523.618 897.326 521.96 897.491 520.36 897.174C518.759 896.856 517.289 896.071 516.136 894.918C514.982 893.764 514.197 892.294 513.88 890.694C513.562 889.093 513.728 887.435 514.354 885.928C514.98 884.422 516.04 883.136 517.398 882.232C518.757 881.328 520.353 880.849 521.984 880.853C524.161 880.859 526.248 881.727 527.787 883.266C529.327 884.806 530.194 886.892 530.2 889.069Z" fill="white"/>
<path d="M374.151 951.92C396.72 940.395 401.962 910.303 401.762 896.698L397.56 905.101H-0.397034L0.203203 985.533L374.151 984.933C361.666 970.527 368.949 956.922 374.151 951.92Z" fill="#FF0000"/>
</g>
</g>
</g>
<path d="M207.026 741.5C212.587 741.5 217.095 736.992 217.095 731.43C217.095 725.869 212.587 721.36 207.026 721.36C201.464 721.36 196.956 725.869 196.956 731.43C196.956 736.992 201.464 741.5 207.026 741.5Z" fill="url(#paint4_linear_106_445)"/>
<path d="M903.603 908.567C887.034 871.949 870.739 829.61 886.622 792.604C904.93 750.151 956.767 734.543 1002.77 730.286C1048.77 726.029 1098.61 726.922 1136.08 699.893C1171.37 674.421 1187.04 629.771 1195.08 586.997C1203.11 544.224 1205.67 499.665 1223.48 459.935C1252.15 395.854 1321.68 352.371 1391.8 354.82" stroke="#A6A6A6" stroke-width="0.45" stroke-miterlimit="10"/>
<path d="M-1.85083 751.867C10.9195 740.035 30.9446 739.165 47.308 745.001C63.6715 750.837 77.2886 762.417 90.7912 773.494C104.294 784.571 118.254 795.716 134.984 800.591C176.018 812.606 218.952 783.999 261.428 788.713C274.351 790.149 286.744 794.652 297.574 801.848C308.404 809.044 317.357 818.724 323.687 830.081C330.017 841.439 333.542 854.144 333.966 867.14C334.39 880.135 331.703 893.044 326.127 904.79" stroke="white" stroke-width="0.43" stroke-miterlimit="10"/>
<path d="M4.69135 514.929C25.2886 511.038 44.0093 528.157 53.5756 546.695C63.1419 565.232 67.536 586.47 79.8257 603.314C101.888 633.569 143.334 641.877 180.752 642.22C218.171 642.564 256.894 637.643 292.138 650.162C363.221 675.588 393.339 761.181 456.459 802.627C477.491 816.359 501.818 825.033 521.752 840.412C541.686 855.791 557.065 881.607 549.65 905.614" stroke="#A6A6A6" stroke-width="0.5" stroke-miterlimit="10"/>
<path d="M278.109 741.866C289.447 741.866 298.638 732.675 298.638 721.337C298.638 710 289.447 700.809 278.109 700.809C266.771 700.809 257.58 710 257.58 721.337C257.58 732.675 266.771 741.866 278.109 741.866Z" fill="url(#paint5_linear_106_445)"/>
<path d="M1316.49 381.345C1316.49 382.479 1316.15 383.587 1315.52 384.529C1314.89 385.47 1313.99 386.204 1312.94 386.635C1311.9 387.067 1310.74 387.178 1309.63 386.953C1308.52 386.729 1307.5 386.179 1306.7 385.374C1305.91 384.57 1305.36 383.546 1305.15 382.433C1304.93 381.32 1305.05 380.168 1305.49 379.124C1305.93 378.079 1306.67 377.189 1307.62 376.566C1308.57 375.942 1309.68 375.615 1310.81 375.624C1312.32 375.636 1313.76 376.244 1314.83 377.316C1315.89 378.387 1316.49 379.836 1316.49 381.345ZM1314.36 381.345C1314.37 380.633 1314.17 379.934 1313.78 379.337C1313.39 378.74 1312.83 378.272 1312.17 377.993C1311.52 377.714 1310.79 377.636 1310.09 377.77C1309.39 377.903 1308.75 378.242 1308.24 378.742C1307.73 379.243 1307.39 379.883 1307.25 380.581C1307.1 381.28 1307.17 382.004 1307.44 382.664C1307.71 383.323 1308.17 383.887 1308.77 384.284C1309.36 384.68 1310.05 384.892 1310.77 384.892C1311.24 384.895 1311.7 384.805 1312.14 384.627C1312.58 384.449 1312.97 384.187 1313.31 383.855C1313.64 383.523 1313.9 383.128 1314.09 382.694C1314.27 382.259 1314.36 381.793 1314.36 381.322V381.345Z" fill="white"/>
<path d="M1316.65 374.136C1316.83 374.133 1317.01 374.166 1317.18 374.234C1317.35 374.301 1317.5 374.402 1317.63 374.53C1317.76 374.658 1317.87 374.81 1317.94 374.978C1318.01 375.146 1318.04 375.327 1318.04 375.509C1318.03 375.864 1317.89 376.2 1317.64 376.451C1317.39 376.702 1317.05 376.848 1316.69 376.859C1316.33 376.866 1315.97 376.728 1315.7 376.476C1315.43 376.224 1315.27 375.877 1315.25 375.509C1315.25 375.327 1315.29 375.146 1315.36 374.978C1315.43 374.81 1315.53 374.658 1315.66 374.53C1315.79 374.402 1315.95 374.301 1316.12 374.234C1316.29 374.166 1316.47 374.133 1316.65 374.136Z" fill="white"/>
<path d="M729.144 241.489C691.543 257.257 660.487 296.415 667.97 336.603C673.852 367.728 700.949 392.376 703.764 423.912C706.213 451.581 689.483 476.916 682.434 503.784C670.991 547.428 687.767 597.113 723.308 624.919C758.85 652.725 811.122 656.959 850.737 635.401C896.005 610.684 922.347 557.589 970.453 538.937C998.168 528.203 1028.95 530.652 1058.66 529.188C1092.37 527.494 1130.84 517.287 1145.62 483.69C1151.96 469.341 1153.7 453.344 1153.31 437.644C1152.83 418.969 1149.33 400.111 1140.86 383.45C1128.66 359.466 1102.53 345.185 1093.33 320.4C1077.7 278.404 1118.8 239.498 1099.69 196.061C1072.96 135.322 987.961 155.232 941.777 177.386C909.737 192.719 873.898 218.306 840.095 227.735C803.981 238.01 766.265 226.568 729.144 241.489Z" fill="url(#paint6_linear_106_445)"/>
<path d="M747.806 329.264H749.042L753.782 343.021L758.542 329.264H759.768L754.265 344.912H753.319L747.806 329.264ZM747.43 329.264H748.515L748.666 338.098V344.912H747.43V329.264ZM759.08 329.264H760.165V344.912H758.94V338.098L759.08 329.264ZM769.547 342.827V336.497C769.547 335.953 769.454 335.512 769.268 335.175C769.082 334.831 768.81 334.581 768.451 334.423C768.093 334.265 767.652 334.187 767.129 334.187C766.635 334.187 766.194 334.287 765.808 334.487C765.428 334.681 765.13 334.953 764.915 335.304C764.708 335.648 764.604 336.046 764.604 336.497L763.411 336.486C763.411 336.042 763.5 335.616 763.68 335.208C763.859 334.792 764.113 334.427 764.443 334.111C764.772 333.789 765.166 333.535 765.625 333.348C766.091 333.162 766.606 333.069 767.172 333.069C767.867 333.069 768.484 333.18 769.021 333.402C769.558 333.624 769.977 333.99 770.278 334.498C770.586 335.007 770.74 335.68 770.74 336.519V342.462C770.74 342.87 770.765 343.289 770.816 343.719C770.873 344.149 770.948 344.5 771.041 344.772V344.912H769.773C769.694 344.661 769.637 344.343 769.601 343.956C769.565 343.562 769.547 343.185 769.547 342.827ZM769.795 338.12L769.827 339.141H767.763C767.205 339.141 766.714 339.202 766.291 339.324C765.868 339.445 765.514 339.621 765.227 339.85C764.948 340.08 764.736 340.352 764.593 340.667C764.45 340.982 764.378 341.34 764.378 341.742C764.378 342.258 764.461 342.68 764.625 343.01C764.79 343.332 765.03 343.572 765.345 343.73C765.668 343.88 766.051 343.956 766.495 343.956C767.083 343.956 767.599 343.841 768.043 343.612C768.494 343.375 768.863 343.064 769.15 342.677C769.436 342.283 769.623 341.867 769.709 341.43L770.031 342.161C769.959 342.49 769.827 342.827 769.633 343.171C769.44 343.515 769.189 343.837 768.881 344.138C768.573 344.432 768.208 344.672 767.785 344.858C767.362 345.045 766.886 345.138 766.356 345.138C765.718 345.138 765.159 345.016 764.679 344.772C764.206 344.529 763.837 344.16 763.572 343.665C763.314 343.171 763.185 342.562 763.185 341.838C763.185 341.301 763.275 340.807 763.454 340.355C763.64 339.904 763.916 339.513 764.281 339.184C764.647 338.847 765.105 338.586 765.657 338.399C766.209 338.213 766.85 338.12 767.581 338.12H769.795ZM780.338 342.655V328.405H781.53V344.912H780.413L780.338 342.655ZM773.588 339.646V338.561C773.588 337.586 773.674 336.752 773.846 336.057C774.025 335.354 774.28 334.785 774.609 334.348C774.939 333.911 775.337 333.588 775.802 333.381C776.275 333.173 776.802 333.069 777.382 333.069C777.948 333.069 778.442 333.176 778.865 333.391C779.295 333.599 779.66 333.896 779.961 334.283C780.262 334.67 780.506 335.132 780.692 335.67C780.878 336.2 781.015 336.794 781.101 337.454V340.925C781.029 341.541 780.9 342.107 780.714 342.623C780.535 343.139 780.291 343.583 779.983 343.956C779.682 344.328 779.313 344.618 778.876 344.826C778.439 345.034 777.93 345.138 777.35 345.138C776.777 345.138 776.257 345.027 775.792 344.805C775.333 344.583 774.939 344.246 774.609 343.794C774.28 343.343 774.025 342.773 773.846 342.086C773.674 341.398 773.588 340.585 773.588 339.646ZM774.792 338.561V339.646C774.792 340.391 774.846 341.036 774.953 341.581C775.068 342.125 775.24 342.576 775.469 342.935C775.706 343.286 775.999 343.551 776.35 343.73C776.701 343.902 777.117 343.988 777.597 343.988C778.206 343.988 778.715 343.862 779.123 343.612C779.532 343.354 779.858 343.017 780.101 342.601C780.352 342.179 780.535 341.717 780.649 341.215V337.239C780.578 336.895 780.47 336.547 780.327 336.196C780.191 335.838 780.008 335.508 779.779 335.208C779.549 334.907 779.256 334.667 778.897 334.487C778.546 334.301 778.12 334.208 777.619 334.208C777.131 334.208 776.709 334.298 776.35 334.477C775.992 334.649 775.698 334.914 775.469 335.272C775.24 335.63 775.068 336.082 774.953 336.626C774.846 337.163 774.792 337.808 774.792 338.561ZM788.602 345.138C787.957 345.138 787.363 345.034 786.818 344.826C786.281 344.611 785.815 344.289 785.421 343.859C785.034 343.422 784.733 342.874 784.518 342.215C784.303 341.548 784.196 340.764 784.196 339.861V338.518C784.196 337.558 784.31 336.734 784.54 336.046C784.769 335.351 785.077 334.785 785.464 334.348C785.858 333.904 786.306 333.581 786.807 333.381C787.309 333.173 787.839 333.069 788.398 333.069C789.036 333.069 789.594 333.173 790.074 333.381C790.562 333.588 790.97 333.904 791.3 334.326C791.629 334.749 791.876 335.283 792.041 335.928C792.206 336.565 792.288 337.321 792.288 338.195V339.195H784.916V338.077H791.095V337.776C791.081 337.017 790.974 336.372 790.773 335.842C790.58 335.304 790.286 334.896 789.892 334.616C789.505 334.33 789.01 334.187 788.409 334.187C787.964 334.187 787.556 334.269 787.183 334.434C786.811 334.591 786.488 334.842 786.216 335.186C785.951 335.53 785.747 335.978 785.604 336.529C785.467 337.081 785.399 337.744 785.399 338.518V339.861C785.399 340.57 785.475 341.186 785.625 341.709C785.783 342.225 786.005 342.655 786.291 342.999C786.578 343.336 786.922 343.59 787.323 343.762C787.724 343.927 788.169 344.009 788.656 344.009C789.258 344.009 789.784 343.909 790.236 343.708C790.687 343.501 791.088 343.189 791.439 342.773L792.073 343.569C791.858 343.848 791.593 344.11 791.278 344.353C790.963 344.59 790.587 344.78 790.15 344.923C789.713 345.066 789.197 345.138 788.602 345.138ZM802.477 342.215L804.862 333.284H805.69L805.281 335.67L802.81 344.912H801.982L802.477 342.215ZM800.177 333.284L802.272 342.268L802.648 344.912H801.799L798.962 333.284H800.177ZM808.516 342.225L810.537 333.284H811.762L808.914 344.912H808.076L808.516 342.225ZM805.862 333.284L808.205 342.129L808.742 344.912H807.915L805.378 335.659L804.991 333.284H805.862ZM815.513 333.284V344.912H814.32V333.284H815.513ZM814.137 329.941C814.137 329.684 814.205 329.472 814.341 329.307C814.485 329.135 814.682 329.049 814.932 329.049C815.176 329.049 815.366 329.135 815.502 329.307C815.645 329.472 815.717 329.684 815.717 329.941C815.717 330.178 815.645 330.378 815.502 330.543C815.366 330.708 815.176 330.79 814.932 330.79C814.682 330.79 814.485 330.708 814.341 330.543C814.205 330.378 814.137 330.178 814.137 329.941ZM822.627 333.284V334.358H817.662V333.284H822.627ZM819.446 330.307H820.65V342.075C820.65 342.612 820.707 343.017 820.822 343.289C820.936 343.562 821.087 343.744 821.273 343.837C821.459 343.923 821.66 343.966 821.875 343.966C822.04 343.966 822.194 343.956 822.337 343.934C822.488 343.913 822.62 343.884 822.735 343.848L822.778 344.944C822.642 345.002 822.466 345.045 822.251 345.073C822.043 345.109 821.821 345.127 821.585 345.127C821.184 345.127 820.822 345.034 820.499 344.848C820.177 344.654 819.919 344.335 819.726 343.891C819.539 343.447 819.446 342.838 819.446 342.064V330.307ZM826.453 328.405V344.912H825.26V328.405H826.453ZM826.185 338.378L825.658 338.066C825.687 337.378 825.798 336.734 825.991 336.132C826.192 335.53 826.464 335 826.808 334.541C827.152 334.075 827.557 333.714 828.022 333.456C828.488 333.198 829.004 333.069 829.57 333.069C830.05 333.069 830.483 333.148 830.87 333.305C831.257 333.463 831.583 333.71 831.848 334.047C832.121 334.384 832.328 334.824 832.472 335.369C832.615 335.913 832.687 336.569 832.687 337.335V344.912H831.494V337.325C831.494 336.529 831.404 335.906 831.225 335.455C831.046 335.003 830.788 334.684 830.451 334.498C830.122 334.305 829.724 334.208 829.258 334.208C828.764 334.208 828.327 334.341 827.947 334.606C827.574 334.871 827.256 335.215 826.991 335.637C826.733 336.06 826.536 336.515 826.399 337.002C826.263 337.482 826.192 337.941 826.185 338.378ZM843.692 343.741L846.679 333.284H847.958L843.863 346.771C843.777 347.036 843.666 347.33 843.53 347.653C843.401 347.982 843.229 348.294 843.014 348.588C842.807 348.889 842.545 349.132 842.23 349.318C841.922 349.512 841.546 349.609 841.101 349.609C840.987 349.609 840.836 349.591 840.65 349.555C840.464 349.526 840.331 349.498 840.252 349.469L840.242 348.373C840.306 348.387 840.399 348.401 840.521 348.416C840.643 348.43 840.729 348.437 840.779 348.437C841.166 348.437 841.492 348.358 841.757 348.201C842.022 348.043 842.244 347.807 842.423 347.491C842.61 347.183 842.771 346.8 842.907 346.341L843.692 343.741ZM841.026 333.284L844.014 343.236L844.336 344.6L843.466 345.138L839.715 333.284H841.026ZM849.42 339.7V338.496C849.42 337.615 849.52 336.837 849.721 336.164C849.928 335.491 850.219 334.924 850.591 334.466C850.971 334 851.422 333.653 851.945 333.423C852.468 333.187 853.041 333.069 853.665 333.069C854.302 333.069 854.879 333.187 855.395 333.423C855.918 333.653 856.366 334 856.738 334.466C857.118 334.924 857.412 335.491 857.62 336.164C857.828 336.837 857.931 337.615 857.931 338.496V339.7C857.931 340.581 857.828 341.362 857.62 342.043C857.412 342.716 857.118 343.282 856.738 343.741C856.366 344.199 855.918 344.547 855.395 344.783C854.879 345.02 854.306 345.138 853.676 345.138C853.045 345.138 852.468 345.02 851.945 344.783C851.429 344.547 850.982 344.199 850.602 343.741C850.222 343.275 849.928 342.705 849.721 342.032C849.52 341.358 849.42 340.581 849.42 339.7ZM850.623 338.496V339.7C850.623 340.366 850.688 340.964 850.817 341.495C850.953 342.025 851.154 342.476 851.419 342.849C851.684 343.221 852.003 343.508 852.375 343.708C852.755 343.909 853.188 344.009 853.676 344.009C854.191 344.009 854.639 343.909 855.019 343.708C855.406 343.508 855.725 343.221 855.975 342.849C856.233 342.476 856.423 342.025 856.545 341.495C856.674 340.964 856.738 340.366 856.738 339.7V338.496C856.738 337.844 856.67 337.253 856.534 336.723C856.398 336.193 856.194 335.741 855.922 335.369C855.657 334.989 855.334 334.699 854.954 334.498C854.575 334.29 854.145 334.187 853.665 334.187C853.192 334.187 852.766 334.29 852.386 334.498C852.006 334.699 851.684 334.989 851.419 335.369C851.161 335.741 850.964 336.193 850.828 336.723C850.691 337.253 850.623 337.844 850.623 338.496ZM866.894 342.225V333.284H868.087V344.912H866.927L866.894 342.225ZM867.109 340.054L867.69 340.033C867.69 340.764 867.615 341.441 867.464 342.064C867.321 342.68 867.095 343.218 866.787 343.676C866.486 344.135 866.092 344.493 865.605 344.751C865.125 345.002 864.541 345.127 863.853 345.127C863.373 345.127 862.932 345.045 862.531 344.88C862.137 344.715 861.8 344.461 861.521 344.117C861.241 343.766 861.023 343.314 860.865 342.763C860.715 342.204 860.64 341.527 860.64 340.731V333.284H861.833V340.753C861.833 341.362 861.89 341.878 862.005 342.301C862.119 342.716 862.277 343.046 862.477 343.289C862.685 343.533 862.918 343.708 863.176 343.816C863.434 343.923 863.71 343.977 864.003 343.977C864.784 343.977 865.397 343.794 865.841 343.429C866.293 343.064 866.615 342.584 866.808 341.989C867.009 341.394 867.109 340.749 867.109 340.054ZM877.566 333.284V344.912H876.373V333.284H877.566ZM876.191 329.941C876.191 329.684 876.259 329.472 876.395 329.307C876.538 329.135 876.735 329.049 876.986 329.049C877.23 329.049 877.419 329.135 877.556 329.307C877.699 329.472 877.77 329.684 877.77 329.941C877.77 330.178 877.699 330.378 877.556 330.543C877.419 330.708 877.23 330.79 876.986 330.79C876.735 330.79 876.538 330.708 876.395 330.543C876.259 330.378 876.191 330.178 876.191 329.941ZM882.102 335.766V344.912H880.909V333.284H882.048L882.102 335.766ZM881.833 338.378L881.306 338.066C881.335 337.378 881.446 336.734 881.639 336.132C881.84 335.53 882.112 335 882.456 334.541C882.8 334.075 883.205 333.714 883.671 333.456C884.136 333.198 884.652 333.069 885.218 333.069C885.698 333.069 886.132 333.148 886.519 333.305C886.905 333.463 887.231 333.71 887.497 334.047C887.769 334.384 887.977 334.824 888.12 335.369C888.263 335.913 888.335 336.569 888.335 337.335V344.912H887.142V337.325C887.142 336.529 887.052 335.906 886.873 335.455C886.694 335.003 886.436 334.684 886.099 334.498C885.77 334.305 885.372 334.208 884.907 334.208C884.412 334.208 883.975 334.341 883.595 334.606C883.223 334.871 882.904 335.215 882.639 335.637C882.381 336.06 882.184 336.515 882.048 337.002C881.912 337.482 881.84 337.941 881.833 338.378ZM897.642 335.67V344.912H896.438V333.284H897.588L897.642 335.67ZM897.416 338.378L896.847 338.066C896.875 337.378 896.979 336.734 897.158 336.132C897.344 335.53 897.599 335 897.921 334.541C898.251 334.075 898.652 333.714 899.125 333.456C899.598 333.198 900.135 333.069 900.737 333.069C901.21 333.069 901.636 333.148 902.016 333.305C902.403 333.456 902.736 333.696 903.015 334.025C903.295 334.348 903.51 334.77 903.66 335.293C903.811 335.809 903.886 336.436 903.886 337.174V344.912H902.693V337.217C902.693 336.451 902.593 335.849 902.392 335.412C902.199 334.975 901.926 334.667 901.575 334.487C901.231 334.301 900.827 334.208 900.361 334.208C899.823 334.208 899.369 334.341 898.996 334.606C898.623 334.871 898.322 335.215 898.093 335.637C897.871 336.06 897.706 336.515 897.599 337.002C897.491 337.482 897.43 337.941 897.416 338.378ZM903.875 337.368L903.069 337.411C903.098 336.845 903.205 336.304 903.391 335.788C903.578 335.265 903.836 334.803 904.165 334.401C904.495 333.993 904.889 333.671 905.347 333.434C905.813 333.191 906.34 333.069 906.927 333.069C907.436 333.069 907.891 333.151 908.292 333.316C908.693 333.474 909.03 333.724 909.302 334.068C909.582 334.412 909.793 334.853 909.936 335.39C910.08 335.928 910.151 336.572 910.151 337.325V344.912H908.948V337.314C908.948 336.504 908.847 335.874 908.647 335.422C908.453 334.971 908.181 334.656 907.83 334.477C907.486 334.29 907.085 334.201 906.626 334.208C906.175 334.208 905.777 334.308 905.433 334.509C905.097 334.71 904.814 334.967 904.584 335.283C904.362 335.591 904.19 335.931 904.069 336.304C903.954 336.669 903.889 337.024 903.875 337.368ZM914.601 333.284V344.912H913.408V333.284H914.601ZM913.225 329.941C913.225 329.684 913.293 329.472 913.429 329.307C913.573 329.135 913.77 329.049 914.02 329.049C914.264 329.049 914.454 329.135 914.59 329.307C914.733 329.472 914.805 329.684 914.805 329.941C914.805 330.178 914.733 330.378 914.59 330.543C914.454 330.708 914.264 330.79 914.02 330.79C913.77 330.79 913.573 330.708 913.429 330.543C913.293 330.378 913.225 330.178 913.225 329.941ZM919.136 335.766V344.912H917.943V333.284H919.082L919.136 335.766ZM918.867 338.378L918.341 338.066C918.369 337.378 918.48 336.734 918.674 336.132C918.874 335.53 919.147 335 919.491 334.541C919.835 334.075 920.239 333.714 920.705 333.456C921.171 333.198 921.687 333.069 922.253 333.069C922.733 333.069 923.166 333.148 923.553 333.305C923.94 333.463 924.266 333.71 924.531 334.047C924.803 334.384 925.011 334.824 925.154 335.369C925.298 335.913 925.369 336.569 925.369 337.335V344.912H924.176V337.325C924.176 336.529 924.087 335.906 923.908 335.455C923.729 335.003 923.471 334.684 923.134 334.498C922.804 334.305 922.407 334.208 921.941 334.208C921.447 334.208 921.01 334.341 920.63 334.606C920.257 334.871 919.938 335.215 919.673 335.637C919.415 336.06 919.218 336.515 919.082 337.002C918.946 337.482 918.874 337.941 918.867 338.378ZM934.88 342.655V328.405H936.073V344.912H934.956L934.88 342.655ZM928.131 339.646V338.561C928.131 337.586 928.217 336.752 928.389 336.057C928.568 335.354 928.823 334.785 929.152 334.348C929.482 333.911 929.879 333.588 930.345 333.381C930.818 333.173 931.345 333.069 931.925 333.069C932.491 333.069 932.985 333.176 933.408 333.391C933.838 333.599 934.203 333.896 934.504 334.283C934.805 334.67 935.049 335.132 935.235 335.67C935.421 336.2 935.557 336.794 935.643 337.454V340.925C935.572 341.541 935.443 342.107 935.257 342.623C935.077 343.139 934.834 343.583 934.526 343.956C934.225 344.328 933.856 344.618 933.419 344.826C932.982 345.034 932.473 345.138 931.893 345.138C931.32 345.138 930.8 345.027 930.334 344.805C929.876 344.583 929.482 344.246 929.152 343.794C928.823 343.343 928.568 342.773 928.389 342.086C928.217 341.398 928.131 340.585 928.131 339.646ZM929.335 338.561V339.646C929.335 340.391 929.389 341.036 929.496 341.581C929.611 342.125 929.783 342.576 930.012 342.935C930.248 343.286 930.542 343.551 930.893 343.73C931.244 343.902 931.66 343.988 932.14 343.988C932.749 343.988 933.258 343.862 933.666 343.612C934.074 343.354 934.4 343.017 934.644 342.601C934.895 342.179 935.077 341.717 935.192 341.215V337.239C935.12 336.895 935.013 336.547 934.87 336.196C934.734 335.838 934.551 335.508 934.322 335.208C934.092 334.907 933.799 334.667 933.44 334.487C933.089 334.301 932.663 334.208 932.161 334.208C931.674 334.208 931.251 334.298 930.893 334.477C930.535 334.649 930.241 334.914 930.012 335.272C929.783 335.63 929.611 336.082 929.496 336.626C929.389 337.163 929.335 337.808 929.335 338.561Z" fill="white"/>
<path d="M751.198 386.497C751.198 386.298 751.18 386.116 751.144 385.953C751.108 385.789 751.032 385.638 750.914 385.5C750.802 385.362 750.635 385.224 750.416 385.086C750.201 384.948 749.92 384.805 749.572 384.657C749.158 384.483 748.757 384.299 748.369 384.105C747.98 383.906 747.63 383.676 747.319 383.415C747.007 383.155 746.759 382.848 746.575 382.495C746.396 382.138 746.307 381.719 746.307 381.238C746.307 380.768 746.391 380.341 746.56 379.958C746.733 379.575 746.979 379.248 747.296 378.977C747.612 378.701 747.983 378.489 748.407 378.34C748.836 378.192 749.314 378.118 749.841 378.118C750.556 378.118 751.175 378.266 751.696 378.563C752.222 378.859 752.629 379.265 752.915 379.782C753.206 380.298 753.352 380.891 753.352 381.56H751.113C751.113 381.243 751.067 380.965 750.975 380.725C750.888 380.479 750.748 380.288 750.554 380.15C750.359 380.012 750.109 379.943 749.802 379.943C749.516 379.943 749.279 380.001 749.089 380.119C748.905 380.231 748.767 380.387 748.675 380.587C748.589 380.781 748.545 381 748.545 381.246C748.545 381.43 748.589 381.596 748.675 381.744C748.767 381.887 748.893 382.018 749.051 382.135C749.21 382.247 749.396 382.357 749.611 382.465C749.831 382.572 750.071 382.677 750.331 382.779C750.837 382.978 751.284 383.198 751.673 383.438C752.061 383.673 752.386 383.939 752.646 384.236C752.907 384.527 753.104 384.856 753.237 385.224C753.37 385.592 753.436 386.012 753.436 386.482C753.436 386.947 753.354 387.371 753.191 387.754C753.032 388.132 752.8 388.46 752.493 388.735C752.187 389.006 751.816 389.216 751.382 389.364C750.952 389.512 750.472 389.586 749.94 389.586C749.424 389.586 748.936 389.515 748.476 389.372C748.016 389.224 747.61 389.001 747.257 388.705C746.91 388.403 746.636 388.023 746.437 387.563C746.238 387.098 746.138 386.548 746.138 385.914H748.384C748.384 386.252 748.417 386.54 748.484 386.781C748.55 387.016 748.652 387.205 748.79 387.348C748.928 387.486 749.097 387.591 749.296 387.662C749.501 387.729 749.733 387.762 749.994 387.762C750.29 387.762 750.526 387.706 750.699 387.593C750.878 387.481 751.006 387.33 751.083 387.141C751.159 386.952 751.198 386.737 751.198 386.497ZM758.994 380.265L756.594 389.433H754.226L757.714 378.271H759.193L758.994 380.265ZM760.887 389.433L758.473 380.265L758.25 378.271H759.753L763.272 389.433H760.887ZM760.972 385.27V387.133H755.935V385.27H760.972ZM767.864 378.271V389.433H765.633V378.271H767.864ZM770.639 378.271V380.134H762.911V378.271H770.639ZM774.272 378.271V389.433H772.042V378.271H774.272ZM780.911 386.497C780.911 386.298 780.893 386.116 780.857 385.953C780.822 385.789 780.745 385.638 780.627 385.5C780.515 385.362 780.349 385.224 780.129 385.086C779.915 384.948 779.633 384.805 779.286 384.657C778.872 384.483 778.471 384.299 778.082 384.105C777.694 383.906 777.344 383.676 777.032 383.415C776.72 383.155 776.472 382.848 776.288 382.495C776.11 382.138 776.02 381.719 776.02 381.238C776.02 380.768 776.104 380.341 776.273 379.958C776.447 379.575 776.692 379.248 777.009 378.977C777.326 378.701 777.696 378.489 778.121 378.34C778.55 378.192 779.028 378.118 779.554 378.118C780.27 378.118 780.888 378.266 781.409 378.563C781.936 378.859 782.342 379.265 782.628 379.782C782.92 380.298 783.065 380.891 783.065 381.56H780.827C780.827 381.243 780.781 380.965 780.689 380.725C780.602 380.479 780.461 380.288 780.267 380.15C780.073 380.012 779.823 379.943 779.516 379.943C779.23 379.943 778.992 380.001 778.803 380.119C778.619 380.231 778.481 380.387 778.389 380.587C778.302 380.781 778.259 381 778.259 381.246C778.259 381.43 778.302 381.596 778.389 381.744C778.481 381.887 778.606 382.018 778.765 382.135C778.923 382.247 779.11 382.357 779.324 382.465C779.544 382.572 779.784 382.677 780.045 382.779C780.551 382.978 780.998 383.198 781.386 383.438C781.775 383.673 782.099 383.939 782.36 384.236C782.621 384.527 782.817 384.856 782.95 385.224C783.083 385.592 783.15 386.012 783.15 386.482C783.15 386.947 783.068 387.371 782.904 387.754C782.746 388.132 782.513 388.46 782.207 388.735C781.9 389.006 781.529 389.216 781.095 389.364C780.666 389.512 780.185 389.586 779.654 389.586C779.138 389.586 778.65 389.515 778.19 389.372C777.73 389.224 777.323 389.001 776.971 388.705C776.623 388.403 776.35 388.023 776.15 387.563C775.951 387.098 775.852 386.548 775.852 385.914H778.098C778.098 386.252 778.131 386.54 778.197 386.781C778.264 387.016 778.366 387.205 778.504 387.348C778.642 387.486 778.811 387.591 779.01 387.662C779.214 387.729 779.447 387.762 779.708 387.762C780.004 387.762 780.239 387.706 780.413 387.593C780.592 387.481 780.719 387.33 780.796 387.141C780.873 386.952 780.911 386.737 780.911 386.497ZM786.914 378.271V389.433H784.667V378.271H786.914ZM790.409 383.017V384.872H786.346V383.017H790.409ZM790.839 378.271V380.134H786.346V378.271H790.839ZM794.718 380.265L792.318 389.433H789.949L793.437 378.271H794.917L794.718 380.265ZM796.611 389.433L794.196 380.265L793.974 378.271H795.477L798.995 389.433H796.611ZM796.695 385.27V387.133H791.659V385.27H796.695ZM805.212 385.715H807.443C807.412 386.553 807.244 387.261 806.937 387.839C806.631 388.411 806.194 388.845 805.626 389.142C805.064 389.438 804.384 389.586 803.587 389.586C802.969 389.586 802.419 389.484 801.939 389.28C801.459 389.07 801.05 388.764 800.712 388.36C800.375 387.956 800.12 387.458 799.946 386.865C799.777 386.267 799.693 385.58 799.693 384.803V382.909C799.693 382.133 799.782 381.445 799.961 380.847C800.145 380.249 800.406 379.748 800.743 379.345C801.085 378.936 801.497 378.629 801.977 378.425C802.463 378.215 803.01 378.11 803.618 378.11C804.43 378.11 805.11 378.264 805.657 378.57C806.204 378.877 806.625 379.324 806.922 379.912C807.223 380.495 807.405 381.207 807.466 382.051H805.228C805.212 381.519 805.151 381.103 805.044 380.801C804.941 380.495 804.778 380.28 804.553 380.157C804.328 380.029 804.016 379.966 803.618 379.966C803.321 379.966 803.066 380.019 802.851 380.127C802.637 380.229 802.46 380.395 802.322 380.625C802.184 380.855 802.082 381.156 802.016 381.529C801.954 381.903 801.924 382.357 801.924 382.894V384.803C801.924 385.329 801.952 385.779 802.008 386.152C802.064 386.52 802.154 386.822 802.276 387.057C802.399 387.292 802.565 387.463 802.775 387.57C802.989 387.678 803.26 387.731 803.587 387.731C803.965 387.731 804.269 387.675 804.499 387.563C804.735 387.45 804.908 387.248 805.021 386.957C805.133 386.666 805.197 386.252 805.212 385.715ZM813.062 378.271V389.433H810.832V378.271H813.062ZM815.837 378.271V380.134H808.11V378.271H815.837ZM819.471 378.271V389.433H817.24V378.271H819.471ZM829.23 382.986V384.849C829.23 385.636 829.133 386.326 828.939 386.919C828.75 387.506 828.479 388 828.126 388.398C827.779 388.792 827.357 389.088 826.861 389.287C826.371 389.487 825.826 389.586 825.228 389.586C824.63 389.586 824.084 389.487 823.588 389.287C823.097 389.088 822.673 388.792 822.315 388.398C821.963 388 821.689 387.506 821.495 386.919C821.301 386.326 821.204 385.636 821.204 384.849V382.986C821.204 382.178 821.298 381.473 821.487 380.87C821.676 380.262 821.95 379.756 822.308 379.352C822.665 378.943 823.09 378.637 823.58 378.432C824.071 378.223 824.615 378.118 825.213 378.118C825.811 378.118 826.355 378.223 826.846 378.432C827.336 378.637 827.761 378.943 828.118 379.352C828.476 379.756 828.75 380.262 828.939 380.87C829.133 381.473 829.23 382.178 829.23 382.986ZM826.999 384.849V382.971C826.999 382.439 826.961 381.987 826.884 381.614C826.808 381.236 826.693 380.926 826.539 380.686C826.386 380.446 826.199 380.27 825.98 380.157C825.76 380.045 825.504 379.989 825.213 379.989C824.922 379.989 824.664 380.045 824.439 380.157C824.219 380.27 824.032 380.446 823.879 380.686C823.731 380.926 823.618 381.236 823.542 381.614C823.47 381.987 823.434 382.439 823.434 382.971V384.849C823.434 385.36 823.473 385.797 823.549 386.16C823.626 386.523 823.741 386.819 823.894 387.049C824.048 387.279 824.234 387.45 824.454 387.563C824.679 387.67 824.937 387.724 825.228 387.724C825.515 387.724 825.767 387.67 825.987 387.563C826.212 387.45 826.399 387.279 826.547 387.049C826.695 386.819 826.808 386.523 826.884 386.16C826.961 385.797 826.999 385.36 826.999 384.849ZM838.667 378.271V389.433H836.497L832.994 382.449V389.433H830.863V378.271H833.002L836.536 385.332V378.271H838.667Z" fill="white"/>
<path d="M756.549 408.088V459.659H750.304V414.635H750.002L737.411 422.995V416.649L750.304 408.088H756.549ZM788.202 460.364C784.408 460.364 781.176 459.331 778.507 457.266C775.838 455.185 773.798 452.172 772.388 448.226C770.978 444.265 770.273 439.48 770.273 433.873C770.273 428.3 770.978 423.541 772.388 419.596C773.815 415.634 775.863 412.612 778.532 410.53C781.218 408.432 784.441 407.383 788.202 407.383C791.962 407.383 795.177 408.432 797.846 410.53C800.532 412.612 802.58 415.634 803.99 419.596C805.417 423.541 806.13 428.3 806.13 433.873C806.13 439.48 805.425 444.265 804.015 448.226C802.605 452.172 800.565 455.185 797.896 457.266C795.227 459.331 791.995 460.364 788.202 460.364ZM788.202 454.824C791.962 454.824 794.883 453.011 796.965 449.385C799.046 445.759 800.087 440.588 800.087 433.873C800.087 429.408 799.609 425.605 798.652 422.466C797.712 419.327 796.352 416.935 794.572 415.29C792.81 413.644 790.686 412.822 788.202 412.822C784.475 412.822 781.562 414.66 779.464 418.336C777.365 421.996 776.316 427.175 776.316 433.873C776.316 438.339 776.786 442.133 777.726 445.255C778.666 448.378 780.018 450.753 781.78 452.381C783.56 454.01 785.7 454.824 788.202 454.824ZM832.52 460.364C828.726 460.364 825.495 459.331 822.826 457.266C820.156 455.185 818.117 452.172 816.707 448.226C815.296 444.265 814.591 439.48 814.591 433.873C814.591 428.3 815.296 423.541 816.707 419.596C818.133 415.634 820.182 412.612 822.851 410.53C825.537 408.432 828.76 407.383 832.52 407.383C836.281 407.383 839.495 408.432 842.165 410.53C844.851 412.612 846.899 415.634 848.309 419.596C849.736 423.541 850.449 428.3 850.449 433.873C850.449 439.48 849.744 444.265 848.334 448.226C846.924 452.172 844.884 455.185 842.215 457.266C839.546 459.331 836.314 460.364 832.52 460.364ZM832.52 454.824C836.281 454.824 839.202 453.011 841.283 449.385C843.365 445.759 844.406 440.588 844.406 433.873C844.406 429.408 843.927 425.605 842.97 422.466C842.03 419.327 840.671 416.935 838.891 415.29C837.128 413.644 835.005 412.822 832.52 412.822C828.793 412.822 825.881 414.66 823.782 418.336C821.684 421.996 820.635 427.175 820.635 433.873C820.635 438.339 821.105 442.133 822.045 445.255C822.985 448.378 824.336 450.753 826.099 452.381C827.879 454.01 830.019 454.824 832.52 454.824ZM886.307 449.989V447.27C886.307 445.389 886.693 443.669 887.465 442.107C888.254 440.529 889.396 439.27 890.89 438.33C892.401 437.373 894.231 436.895 896.38 436.895C898.562 436.895 900.392 437.373 901.869 438.33C903.346 439.27 904.463 440.529 905.218 442.107C905.974 443.669 906.351 445.389 906.351 447.27V449.989C906.351 451.869 905.965 453.598 905.193 455.176C904.438 456.738 903.313 457.997 901.819 458.954C900.341 459.894 898.528 460.364 896.38 460.364C894.197 460.364 892.359 459.894 890.865 458.954C889.371 457.997 888.238 456.738 887.465 455.176C886.693 453.598 886.307 451.869 886.307 449.989ZM891.444 447.27V449.989C891.444 451.55 891.813 452.952 892.552 454.194C893.291 455.42 894.567 456.033 896.38 456.033C898.142 456.033 899.385 455.42 900.106 454.194C900.845 452.952 901.214 451.55 901.214 449.989V447.27C901.214 445.708 900.862 444.315 900.157 443.09C899.452 441.847 898.193 441.226 896.38 441.226C894.617 441.226 893.349 441.847 892.577 443.09C891.822 444.315 891.444 445.708 891.444 447.27ZM860.622 420.477V417.757C860.622 415.877 861.009 414.156 861.781 412.595C862.57 411.017 863.711 409.758 865.205 408.818C866.716 407.861 868.546 407.383 870.695 407.383C872.877 407.383 874.707 407.861 876.184 408.818C877.662 409.758 878.778 411.017 879.533 412.595C880.289 414.156 880.667 415.877 880.667 417.757V420.477C880.667 422.357 880.28 424.086 879.508 425.664C878.753 427.225 877.628 428.484 876.134 429.441C874.657 430.381 872.844 430.852 870.695 430.852C868.512 430.852 866.674 430.381 865.18 429.441C863.686 428.484 862.553 427.225 861.781 425.664C861.009 424.086 860.622 422.357 860.622 420.477ZM865.759 417.757V420.477C865.759 422.038 866.129 423.44 866.867 424.682C867.606 425.908 868.882 426.52 870.695 426.52C872.458 426.52 873.7 425.908 874.422 424.682C875.16 423.44 875.53 422.038 875.53 420.477V417.757C875.53 416.196 875.177 414.803 874.472 413.577C873.767 412.335 872.508 411.714 870.695 411.714C868.932 411.714 867.665 412.335 866.892 413.577C866.137 414.803 865.759 416.196 865.759 417.757ZM862.536 459.659L897.991 408.088H903.732L868.277 459.659H862.536Z" fill="white"/>
<path d="M687.103 295.065C667.947 305.387 649.112 320.651 637.784 340.471C631.673 351.135 628.469 364.341 631.879 376.287C637.074 394.413 654.147 403.224 666.002 415.719C679.206 429.981 689.334 446.808 695.754 465.153C710.286 504.768 710.881 549.03 731.547 586.265C750.657 620.846 773.543 658.401 810.16 668.425C849.867 679.296 890.261 652.886 919.143 622.013C948.025 591.14 972.421 553.836 1008.6 533.238C1044.79 512.641 1089.76 510.581 1119.99 481.425C1139.83 462.292 1159.19 432.655 1151.87 405.238C1138.39 354.889 1092.37 346.696 1073.87 274.056C1062.43 228.925 1046.41 144.201 949.055 154.134C898.523 159.283 866.07 188.142 832.131 223.57C794.392 262.956 733.767 269.891 687.103 295.065Z" stroke="#A6A6A6" stroke-width="0.45" stroke-miterlimit="10"/>
<path d="M468.245 -22.8882C477.743 41.1923 516.9 102.206 572.215 135.825C600.065 152.497 631.196 162.936 663.466 166.425C695.736 169.913 728.378 166.368 759.147 156.034C817.392 136.008 868.13 91.6327 929.601 87.8337C985.466 84.3779 1037.05 115.297 1091.47 128.502C1153.19 143.13 1218.12 134.774 1274.13 104.998C1329.42 75.2465 1371.12 37.0499 1392.51 -21.9499" stroke="#A6A6A6" stroke-width="0.45" stroke-miterlimit="10"/>
</g>
<defs>
<linearGradient id="paint0_linear_106_445" x1="1100.31" y1="587.844" x2="1311.2" y2="953.126" gradientUnits="userSpaceOnUse">
<stop stop-color="#B32E7E"/>
<stop offset="0.5" stop-color="#DA7958"/>
<stop offset="1" stop-color="#FFC233"/>
</linearGradient>
<linearGradient id="paint1_linear_106_445" x1="1094.93" y1="620.937" x2="1127.43" y2="620.937" gradientUnits="userSpaceOnUse">
<stop stop-color="#B32E7E"/>
<stop offset="0.5" stop-color="#DA7958"/>
<stop offset="1" stop-color="#FFC233"/>
</linearGradient>
<linearGradient id="paint2_linear_106_445" x1="1020.85" y1="667.83" x2="1082.11" y2="667.83" gradientUnits="userSpaceOnUse">
<stop stop-color="#B32E7E"/>
<stop offset="0.5" stop-color="#DA7958"/>
<stop offset="1" stop-color="#FFC233"/>
</linearGradient>
<linearGradient id="paint3_linear_106_445" x1="80.9244" y1="677.127" x2="261.515" y2="989.556" gradientUnits="userSpaceOnUse">
<stop stop-color="#B32E7E"/>
<stop offset="0.5" stop-color="#DA7958"/>
<stop offset="1" stop-color="#FFC233"/>
</linearGradient>
<linearGradient id="paint4_linear_106_445" x1="196.956" y1="731.43" x2="217.095" y2="731.43" gradientUnits="userSpaceOnUse">
<stop stop-color="#B32E7E"/>
<stop offset="0.5" stop-color="#DA7958"/>
<stop offset="1" stop-color="#FFC233"/>
</linearGradient>
<linearGradient id="paint5_linear_106_445" x1="257.58" y1="721.337" x2="298.661" y2="721.337" gradientUnits="userSpaceOnUse">
<stop stop-color="#B32E7E"/>
<stop offset="0.5" stop-color="#DA7958"/>
<stop offset="1" stop-color="#FFC233"/>
</linearGradient>
<linearGradient id="paint6_linear_106_445" x1="789.06" y1="205.924" x2="1004.67" y2="579.376" gradientUnits="userSpaceOnUse">
<stop stop-color="#B32E7E"/>
<stop offset="0.5" stop-color="#DA7958"/>
<stop offset="1" stop-color="#FFC233"/>
</linearGradient>
</defs>
</svg>
