<svg width="54" height="54" viewBox="0 0 54 54" fill="none" xmlns="http://www.w3.org/2000/svg">
<path d="M5 -1.61894e-07C2.23858 -7.24824e-08 1.32099e-07 2.23858 2.95052e-07 5L7.9664e-07 13.5L13.5 13.5L13.5 -4.37114e-07L5 -1.61894e-07Z" fill="#FF5A5A"/>
<rect width="13.5" height="13.5" transform="matrix(5.90104e-08 1 1 -3.23788e-08 13.5 0)" fill="#FFA95A"/>
<rect width="13.5" height="13.5" transform="matrix(5.90104e-08 1 1 -3.23788e-08 27 0)" fill="#8CD769"/>
<path d="M40.5 0L40.5 13.5L54 13.5L54 5C54 2.23858 51.7614 -3.64631e-07 49 -2.7522e-07L40.5 0Z" fill="#5AB0FF"/>
<rect width="13.5" height="13.5" transform="matrix(4.37114e-08 1 1 -4.37114e-08 0 13.5)" fill="#FF8484"/>
<rect width="13.5" height="13.5" transform="matrix(4.37114e-08 1 1 -4.37114e-08 13.5 13.5)" fill="#FFBF84"/>
<rect width="13.5" height="13.5" transform="matrix(4.37114e-08 1 1 -4.37114e-08 27 13.5)" fill="#A5DD8B"/>
<rect width="13.5" height="13.5" transform="matrix(4.37114e-08 1 1 -4.37114e-08 40.5 13.5)" fill="#84BCFF"/>
<rect width="13.5" height="13.5" transform="matrix(4.37114e-08 1 1 -4.37114e-08 0 27)" fill="#FFB1B1"/>
<rect width="13.5" height="13.5" transform="matrix(4.37114e-08 1 1 -4.37114e-08 13.5 27)" fill="#FFDE9D"/>
<rect width="13.5" height="13.5" transform="matrix(4.37114e-08 1 1 -4.37114e-08 27 27)" fill="#BBE6A6"/>
<rect width="13.5" height="13.5" transform="matrix(4.37114e-08 1 1 -4.37114e-08 40.5 27)" fill="#B1DEFF"/>
<path d="M0 40.5L3.71547e-07 49C4.92252e-07 51.7614 2.23858 54 5 54L13.5 54L13.5 40.5L0 40.5Z" fill="#FFD2D2"/>
<rect width="13.5" height="13.5" transform="matrix(4.37114e-08 1 1 -4.37114e-08 13.5 40.5)" fill="#FFE5D2"/>
<rect width="13.5" height="13.5" transform="matrix(4.37114e-08 1 1 -4.37114e-08 27 40.5)" fill="#D3F5C1"/>
<path d="M40.5 40.5L40.5 54L49 54C51.7614 54 54 51.7614 54 49L54 40.5L40.5 40.5Z" fill="#C9EBFF"/>
</svg>
