<svg width="54" height="54" viewBox="0 0 54 54" fill="none" xmlns="http://www.w3.org/2000/svg">
<path d="M5 -1.61894e-07C2.23858 -7.24824e-08 1.32099e-07 2.23858 2.95052e-07 5L7.9664e-07 13.5L13.5 13.5L13.5 -4.37114e-07L5 -1.61894e-07Z" fill="#C6C6C6"/>
<rect width="13.5" height="13.5" transform="matrix(5.90104e-08 1 1 -3.23788e-08 13.5 0)" fill="white"/>
<rect width="13.5" height="13.5" transform="matrix(5.90104e-08 1 1 -3.23788e-08 27 0)" fill="#C6C6C6"/>
<path d="M40.5 0L40.5 13.5L54 13.5L54 5C54 2.23858 51.7614 -3.64631e-07 49 -2.7522e-07L40.5 0Z" fill="white"/>
<rect width="13.5" height="13.5" transform="matrix(4.37114e-08 1 1 -4.37114e-08 0 13.5)" fill="white"/>
<rect width="13.5" height="13.5" transform="matrix(4.37114e-08 1 1 -4.37114e-08 13.5 13.5)" fill="#C6C6C6"/>
<rect width="13.5" height="13.5" transform="matrix(4.37114e-08 1 1 -4.37114e-08 27 13.5)" fill="white"/>
<rect width="13.5" height="13.5" transform="matrix(4.37114e-08 1 1 -4.37114e-08 40.5 13.5)" fill="#C6C6C6"/>
<rect width="13.5" height="13.5" transform="matrix(4.37114e-08 1 1 -4.37114e-08 0 27)" fill="#C6C6C6"/>
<rect width="13.5" height="13.5" transform="matrix(4.37114e-08 1 1 -4.37114e-08 13.5 27)" fill="white"/>
<rect width="13.5" height="13.5" transform="matrix(4.37114e-08 1 1 -4.37114e-08 27 27)" fill="#C6C6C6"/>
<rect width="13.5" height="13.5" transform="matrix(4.37114e-08 1 1 -4.37114e-08 40.5 27)" fill="white"/>
<path d="M0 40.5L3.71547e-07 49C4.92252e-07 51.7614 2.23858 54 5 54L13.5 54L13.5 40.5L0 40.5Z" fill="white"/>
<rect width="13.5" height="13.5" transform="matrix(4.37114e-08 1 1 -4.37114e-08 13.5 40.5)" fill="#C6C6C6"/>
<rect width="13.5" height="13.5" transform="matrix(4.37114e-08 1 1 -4.37114e-08 27 40.5)" fill="white"/>
<path d="M40.5 40.5L40.5 54L49 54C51.7614 54 54 51.7614 54 49L54 40.5L40.5 40.5Z" fill="#C6C6C6"/>
<rect x="0.5" y="0.5" width="53" height="53" rx="4.5" stroke="#C6C6C6"/>
</svg>
